<svg width="34" height="34" viewBox="0 0 34 34" fill="none" xmlns="http://www.w3.org/2000/svg">
<path d="M13.1042 31.1667L12.5375 26.6333C12.2306 26.5153 11.9413 26.3736 11.6698 26.2083C11.3983 26.0431 11.1327 25.866 10.8729 25.6771L6.65835 27.4479L2.76251 20.7187L6.41043 17.9562C6.38682 17.791 6.37501 17.6316 6.37501 17.4781V16.5219C6.37501 16.3684 6.38682 16.209 6.41043 16.0437L2.76251 13.2812L6.65835 6.55208L10.8729 8.32291C11.1327 8.13402 11.4042 7.95694 11.6875 7.79166C11.9708 7.62638 12.2542 7.48472 12.5375 7.36666L13.1042 2.83333H20.8958L21.4625 7.36666C21.7695 7.48472 22.0587 7.62638 22.3302 7.79166C22.6017 7.95694 22.8674 8.13402 23.1271 8.32291L27.3417 6.55208L31.2375 13.2812L27.5896 16.0437C27.6132 16.209 27.625 16.3684 27.625 16.5219V17.4781C27.625 17.6316 27.6014 17.791 27.5542 17.9562L31.2021 20.7187L27.3063 27.4479L23.1271 25.6771C22.8674 25.866 22.5958 26.0431 22.3125 26.2083C22.0292 26.3736 21.7458 26.5153 21.4625 26.6333L20.8958 31.1667H13.1042ZM15.5833 28.3333H18.3813L18.8771 24.5792C19.609 24.3903 20.2879 24.1128 20.9136 23.7469C21.5392 23.3809 22.1118 22.9382 22.6313 22.4187L26.1375 23.8708L27.5188 21.4625L24.4729 19.1604C24.591 18.8299 24.6736 18.4816 24.7208 18.1156C24.7681 17.7496 24.7917 17.3778 24.7917 17C24.7917 16.6222 24.7681 16.2503 24.7208 15.8844C24.6736 15.5184 24.591 15.1701 24.4729 14.8396L27.5188 12.5375L26.1375 10.1292L22.6313 11.6167C22.1118 11.0736 21.5392 10.6191 20.9136 10.2531C20.2879 9.88715 19.609 9.60972 18.8771 9.42083L18.4167 5.66666H15.6188L15.1229 9.42083C14.391 9.60972 13.7122 9.88715 13.0865 10.2531C12.4608 10.6191 11.8882 11.0618 11.3688 11.5812L7.86251 10.1292L6.48126 12.5375L9.5271 14.8042C9.40904 15.1583 9.3264 15.5125 9.27918 15.8667C9.23196 16.2208 9.20835 16.5986 9.20835 17C9.20835 17.3778 9.23196 17.7437 9.27918 18.0979C9.3264 18.4521 9.40904 18.8062 9.5271 19.1604L6.48126 21.4625L7.86251 23.8708L11.3688 22.3833C11.8882 22.9264 12.4608 23.3809 13.0865 23.7469C13.7122 24.1128 14.391 24.3903 15.1229 24.5792L15.5833 28.3333ZM17.0708 21.9583C18.4403 21.9583 19.609 21.4743 20.5771 20.5062C21.5452 19.5382 22.0292 18.3694 22.0292 17C22.0292 15.6306 21.5452 14.4618 20.5771 13.4937C19.609 12.5257 18.4403 12.0417 17.0708 12.0417C15.6778 12.0417 14.5031 12.5257 13.5469 13.4937C12.5906 14.4618 12.1125 15.6306 12.1125 17C12.1125 18.3694 12.5906 19.5382 13.5469 20.5062C14.5031 21.4743 15.6778 21.9583 17.0708 21.9583Z" fill="white"/>
</svg>
