<svg width="86" height="86" viewBox="0 0 86 86" fill="none" xmlns="http://www.w3.org/2000/svg">
<g filter="url(#filter0_d_222_3764)">
<path d="M13.79 8.68152L10.394 12.204C9.66635 12.9588 9.44101 14.4514 10.1928 15.4339L17.4754 26.0069C17.9743 26.4965 18.4733 26.986 19.2113 26.9758C19.9493 26.9655 20.6839 26.7071 21.1691 26.2039L34.3904 39.1769L47.5092 80.202C47.769 81.1914 48.7634 81.9223 49.7474 81.9086C50.7315 81.8949 51.7087 81.3849 52.1869 80.3853L60.4872 57.9287L82.5078 48.9346C83.4884 48.6728 83.9666 47.6732 83.9528 46.6804C83.939 45.6877 83.1872 44.7052 82.1997 44.4707L39.6993 31.656L45.9358 37.7753C46.9337 38.7544 46.9543 40.2436 45.9841 41.25C45.4989 41.7532 44.7643 42.0116 44.2723 42.0185L24.565 22.6814L26.263 20.9202L27.9609 19.1589C28.4461 18.6557 28.6852 18.1559 28.6749 17.4114L28.6714 17.1632C28.6611 16.4186 28.1587 15.6809 27.6632 15.4395L16.9847 8.38892C15.9903 7.65802 14.7603 7.6751 13.79 8.68152ZM58.3433 45.2984C58.8422 45.7879 59.0986 46.5291 59.1055 47.0255C59.1124 47.5219 58.8767 48.2698 58.3916 48.773L51.3571 56.0696C50.3869 57.076 48.9108 57.0965 47.9129 56.1174C46.9151 55.1383 46.8944 53.6492 47.8647 52.6428L54.8991 45.3462C55.8694 44.3398 57.3455 44.3193 58.3433 45.2984Z" fill="#7549EA"/>
</g>
<g filter="url(#filter1_d_222_3764)">
<path d="M9.91992 73.2704C8.24033 75.2071 8.26651 77.9805 9.97767 79.4643C11.6885 80.9468 14.4377 80.5788 16.1171 78.642L42.2921 46.8178L74.2024 29.0137C75.3849 29.4182 76.9889 29.2605 78.5042 28.4668C80.8671 27.2266 82.103 24.925 81.264 23.3246C80.425 21.7234 77.8282 21.4317 75.4649 22.6712C73.908 23.488 72.8561 24.7659 72.5497 25.9996L50.525 36.8107L73.6429 8.70455C74.8919 8.65039 76.3264 7.91667 77.4467 6.62485C79.1948 4.6085 79.5052 2.01494 78.1397 0.830309C76.7745 -0.354343 74.2507 0.321122 72.5017 2.33805C71.3496 3.66757 70.8377 5.2398 71.0027 6.50171L37.3675 43.268L5.65977 58.8303C5.65977 58.8303 3.87241 60.3241 4.10443 63.2299C4.33644 66.1356 5.21581 66.7732 6.28564 66.9055C7.35546 67.0378 25.5965 56.1313 25.5965 56.1313L9.91992 73.2704Z" fill="#FFEC15"/>
</g>
<defs>
<filter id="filter0_d_222_3764" x="7.7959" y="7.87852" width="78.0886" height="77.8931" filterUnits="userSpaceOnUse" color-interpolation-filters="sRGB">
<feFlood flood-opacity="0" result="BackgroundImageFix"/>
<feColorMatrix in="SourceAlpha" type="matrix" values="0 0 0 0 0 0 0 0 0 0 0 0 0 0 0 0 0 0 127 0" result="hardAlpha"/>
<feOffset dy="1.9314"/>
<feGaussianBlur stdDeviation="0.965699"/>
<feComposite in2="hardAlpha" operator="out"/>
<feColorMatrix type="matrix" values="0 0 0 0 0 0 0 0 0 0 0 0 0 0 0 0 0 0 0.25 0"/>
<feBlend mode="normal" in2="BackgroundImageFix" result="effect1_dropShadow_222_3764"/>
<feBlend mode="normal" in="SourceGraphic" in2="effect1_dropShadow_222_3764" result="shape"/>
</filter>
<filter id="filter1_d_222_3764" x="2.15222" y="0.24649" width="81.306" height="83.9904" filterUnits="userSpaceOnUse" color-interpolation-filters="sRGB">
<feFlood flood-opacity="0" result="BackgroundImageFix"/>
<feColorMatrix in="SourceAlpha" type="matrix" values="0 0 0 0 0 0 0 0 0 0 0 0 0 0 0 0 0 0 127 0" result="hardAlpha"/>
<feOffset dy="1.9314"/>
<feGaussianBlur stdDeviation="0.965699"/>
<feComposite in2="hardAlpha" operator="out"/>
<feColorMatrix type="matrix" values="0 0 0 0 0 0 0 0 0 0 0 0 0 0 0 0 0 0 0.25 0"/>
<feBlend mode="normal" in2="BackgroundImageFix" result="effect1_dropShadow_222_3764"/>
<feBlend mode="normal" in="SourceGraphic" in2="effect1_dropShadow_222_3764" result="shape"/>
</filter>
</defs>
</svg>
