<svg width="56" height="56" viewBox="0 0 56 56" fill="none" xmlns="http://www.w3.org/2000/svg">
<circle cx="28" cy="28" r="28" fill="#715EA6"/>
<path d="M42.412 10.2845C43.0645 9.85624 43.2467 8.98799 42.8176 8.33681C42.3885 7.68562 41.5185 7.50376 40.866 7.93202L34.7114 11.9506C32.6893 11.6103 30.4085 11.4519 27.9984 11.4519C19.6865 11.4519 12.95 13.3292 12.95 18.0224V27.4089C12.95 29.2451 14.5606 30.8584 17.1824 32.0259V26.0009C17.1824 25.2207 17.8113 24.593 18.5932 24.593C19.375 24.593 20.0039 25.2207 20.0039 26.0009V33.0056C21.9438 33.5277 24.1834 33.8562 26.5876 33.9501V27.8782C26.5876 27.098 27.2166 26.4702 27.9984 26.4702C28.7802 26.4702 29.4092 27.098 29.4092 27.8782V33.9501C31.8134 33.8562 34.0531 33.5277 35.9929 33.0056V26.0009C35.9929 25.2207 36.6219 24.593 37.4037 24.593C38.1855 24.593 38.8145 25.2207 38.8145 26.0009V32.0259C41.4362 30.8584 43.0468 29.2451 43.0468 27.4089V18.0224C43.0468 15.6113 41.2716 13.9452 38.4148 12.8951L42.4061 10.2845H42.412ZM31.0199 14.3617L27.2225 16.8433C26.57 17.2715 26.3878 18.1398 26.8169 18.791C27.246 19.4421 28.116 19.624 28.7685 19.1958L35.2993 14.9249C36.1634 15.1126 36.9393 15.3356 37.6153 15.5996C39.8961 16.4854 40.2253 17.4006 40.2253 18.0224C40.2253 18.0694 40.0666 19.0315 37.5213 20.1285C35.2346 21.1141 31.8781 21.777 27.9984 21.777C24.1187 21.777 20.7622 21.1141 18.4756 20.1285C15.9303 19.0315 15.7716 18.0694 15.7716 18.0224C15.7716 17.4006 16.1008 16.4854 18.3815 15.5996C20.627 14.7313 23.9894 14.2679 27.9984 14.2679C29.0565 14.2679 30.0617 14.2972 31.0199 14.3617Z" fill="white"/>
<path d="M19.1316 38.0414H21.6768C22.9872 38.0414 23.9322 38.2682 24.7134 38.9234C25.734 39.7802 26.3262 41.078 26.3262 42.5018C26.3262 44.1146 25.6584 45.4502 24.537 46.2566C23.529 46.9748 22.5336 47 21.2862 47H19.1316V38.0414ZM20.001 38.8982V46.1558H21.828C24.159 46.1558 25.3812 44.7698 25.3812 42.4766C25.3812 41.2922 24.9402 40.2716 24.1716 39.6038C23.4282 38.9612 22.6344 38.8982 21.6138 38.8982H20.001ZM27.2361 47V38.0414H28.5339L31.6335 45.8282L34.7205 38.0414H36.0183V47H35.1741V39.0872L32.0241 47H31.2303L28.0803 39.0872V47H27.2361Z" fill="white"/>
</svg>
