<svg width="56" height="56" viewBox="0 0 56 56" fill="none" xmlns="http://www.w3.org/2000/svg">
<circle cx="28" cy="28" r="28" fill="#715EA6"/>
<path d="M45.6022 12.2849L43.3882 8.65103C43.2406 8.40878 42.9477 8.33692 42.7048 8.48337L36.8694 11.1728C36.8455 11.27 36.7002 11.4404 36.6764 11.5376L36.2473 13.2867L31.2668 16.2889C30.581 15.7086 28.9643 14.2817 27.7926 13.9943C25.1564 13.3476 24.3345 14.5883 23.5841 15.5375C23.2935 15.8783 22.979 16.3163 22.6146 16.536C22.0072 16.9021 21.3237 16.7344 20.3235 16.5921C19.2257 16.4258 17.9564 16.1144 16.4964 16.5804C15.7414 16.7043 13.8216 17.7787 12.9566 20.0391C12.3322 21.7403 12.0553 24.5571 14.5644 28.6754C16.3356 31.5825 18.2952 33.2995 20.4432 33.8264C22.6889 34.3773 24.6825 33.424 25.8711 32.3763C26.9383 31.4018 27.4434 30.1864 27.9248 29.0682C28.2608 28.1204 28.6468 27.3909 29.1565 27.0008C29.521 26.7812 29.9353 26.7798 30.4712 26.7052C31.6167 26.6772 32.9575 26.697 33.6012 24.0733C33.8872 22.9071 33.4592 20.4326 33.2832 19.4622L38.2398 16.5572L39.9973 16.9883C40.1926 17.0362 40.3141 16.963 40.4355 16.8898L45.533 12.989C45.6783 12.8186 45.7498 12.5271 45.6022 12.2849ZM20.1399 27.4676C20.1161 27.5647 19.9208 27.5168 19.8232 27.4929C19.7255 27.4689 19.5302 27.421 19.4565 27.2999L17.9805 24.8773C17.8329 24.6351 17.9044 24.3436 18.1474 24.1971C18.3903 24.0507 18.6832 24.1225 18.8308 24.3648L20.3068 26.7873C20.4782 26.9324 20.3829 27.3211 20.1399 27.4676ZM24.4438 25.5357C22.5887 25.0806 21.4079 23.1425 21.8609 21.2962C22.3138 19.4499 24.2574 18.2783 26.1125 18.7334C27.9676 19.1884 29.1484 21.1265 28.6955 22.9728C28.2425 24.8192 26.2989 25.9908 24.4438 25.5357Z" fill="white"/>
<path d="M23.6064 42.7034H29.1756C29.0244 45.3494 27.0588 47.1764 24.5766 47.1764C22.0062 47.1764 20.028 45.1478 20.028 42.464C20.028 41.2166 20.5068 40.07 21.4266 39.1628C22.3086 38.2934 23.367 37.865 24.69 37.865C26.4414 37.865 27.8652 38.747 28.6968 40.2968H27.6132C26.7816 39.2384 25.8492 38.7218 24.6396 38.7218C22.5102 38.7218 20.9604 40.4858 20.9604 42.4766C20.9604 44.7068 22.5984 46.3322 24.6522 46.3322C26.2524 46.3322 27.7266 45.2108 28.1298 43.4972H23.6064V42.7034ZM30.0492 47V38.0414H34.4718V38.9234H30.9186V42.0608H34.4718V42.9428H30.9186V47H30.0492Z" fill="white"/>
</svg>
