<svg width="25" height="33" viewBox="0 0 25 33" fill="none" xmlns="http://www.w3.org/2000/svg">
<path d="M18.2921 -4.36333e-06C18.2921 -4.36333e-06 16.2092 4.89996 14.7886 9.10557C16.1795 9.38126 17.3767 10.1243 18.1432 11.3527C19.1118 12.9055 19.1884 14.9033 18.5637 16.8585C21.3839 17.5783 24.3437 18.1059 24.3644 18.1096L18.1726 17.8762C17.4523 19.4839 16.2644 21.0218 14.6955 22.2301C12.8033 23.6872 10.7016 24.4021 8.82784 24.3702C8.66364 24.3674 8.50124 24.357 8.3406 24.3427C6.26636 28.3577 3.95023 32.9401 3.95023 32.9401C5.10117 30.0193 6.28783 27.1159 7.4429 24.1978C6.15064 23.8877 5.04339 23.159 4.31974 21.999C3.34839 20.4416 3.27331 18.4376 3.90396 16.477C3.95575 16.3161 4.01316 16.1552 4.07441 15.9949C2.88287 15.746 1.50598 15.4516 -4.51546e-07 15.0985L4.46363 15.1086C5.19453 13.6355 6.31859 12.2392 7.76721 11.1235C9.65943 9.66632 11.7611 8.95059 13.635 8.98243C13.6889 8.98335 13.7428 8.98639 13.7964 8.98856C15.8255 4.97465 18.2921 -4.36333e-06 18.2921 -4.36333e-06ZM13.7293 17.7102C13.7015 17.7049 12.2393 17.4348 11.4766 18.4948C11.1763 18.9122 9.96623 21.2006 8.60109 23.8371C8.68396 23.8417 8.76733 23.8467 8.8514 23.8482C10.6132 23.8781 12.6155 23.2039 14.4311 21.8058C15.8711 20.6967 16.9667 19.3049 17.655 17.8571L13.7293 17.7102ZM4.54796 16.0926C4.4767 16.2734 4.41037 16.4547 4.35207 16.6359C3.75925 18.479 3.84697 20.302 4.71517 21.6941C5.37578 22.7531 6.4059 23.4279 7.63621 23.7044C8.26692 22.1049 8.88925 20.5011 9.48769 18.8861C9.7195 18.2636 9.93693 17.8554 9.69256 17.4655C9.43655 17.057 8.69086 16.9799 8.49382 16.9256C7.96326 16.7756 6.55123 16.5065 4.54796 16.0926ZM14.6192 9.60458C13.7808 12.1517 13.2353 14.3525 13.6221 14.9049C14.0557 15.5229 15.9924 16.1788 18.1035 16.7376C18.1057 16.7309 18.1085 16.7245 18.1106 16.7178C18.7037 14.8742 18.6151 13.0507 17.7467 11.6585C17.0492 10.5405 15.9411 9.8492 14.6192 9.60458ZM13.5347 9.50483C11.7916 9.49543 9.82098 10.1698 8.03158 11.5479C6.71994 12.5581 5.69368 13.8024 5.00091 15.1102L8.78373 15.1194C8.78373 15.1194 10.4751 15.2658 11.3817 13.6579C11.7532 12.9994 12.578 11.3932 13.5347 9.50483Z" fill="#FF6D00"/>
</svg>
