<svg width="374" height="110" viewBox="0 0 374 110" fill="none" xmlns="http://www.w3.org/2000/svg">
<rect opacity="0.9" x="1" y="1" width="372" height="108" rx="16" fill="#D9D9D9" stroke="#2F00B2" stroke-width="2"/>
<path d="M337.043 17.5068C337.28 17.537 337.466 17.6669 337.598 17.8174C337.739 17.9799 337.837 18.1858 337.91 18.3906C338.057 18.8031 338.151 19.3584 338.217 19.9756C338.35 21.2189 338.385 22.8671 338.422 24.4814C338.459 26.1122 338.499 27.7093 338.638 28.8984C338.708 29.4974 338.799 29.9546 338.911 30.25C338.949 30.3487 338.985 30.413 339.012 30.4541C339.035 30.4308 339.068 30.3936 339.104 30.332C339.215 30.1482 339.322 29.8496 339.416 29.4336C339.603 28.6087 339.71 27.4912 339.808 26.3311C339.903 25.1918 339.991 24.0087 340.145 23.1162C340.221 22.6735 340.32 22.2598 340.464 21.9463C340.592 21.6673 340.857 21.259 341.353 21.2588C341.759 21.2588 342.037 21.5065 342.205 21.7676C342.367 22.0188 342.47 22.3403 342.543 22.6641C342.69 23.3176 342.754 24.1693 342.807 24.9727C342.861 25.7998 342.904 26.5781 343.001 27.1553C343.048 27.4359 343.101 27.6265 343.153 27.7383C343.157 27.7368 343.16 27.7368 343.161 27.7363C343.163 27.7352 343.172 27.7306 343.189 27.7051C343.211 27.6734 343.237 27.6237 343.272 27.5361C343.29 27.4931 343.307 27.4482 343.327 27.3945C343.347 27.3429 343.369 27.2836 343.394 27.2236C343.493 26.9832 343.65 26.673 343.976 26.4355C344.302 26.1973 344.734 26.0771 345.297 26.0771H347.37C347.638 25.3739 348.454 24.8623 349.421 24.8623C350.387 24.8623 351.204 25.3739 351.472 26.0771H353.088C353.356 25.374 354.172 24.8623 355.139 24.8623C356.105 24.8624 356.922 25.3739 357.189 26.0771H358.806C359.073 25.3741 359.889 24.8625 360.855 24.8623C362.039 24.8623 363 25.6299 363 26.5771C363 27.5246 362.04 28.293 360.855 28.293C359.889 28.2928 359.072 27.7807 358.805 27.0771H357.19C356.923 27.7809 356.106 28.2929 355.139 28.293C354.172 28.293 353.354 27.7809 353.087 27.0771H351.473C351.205 27.7809 350.388 28.293 349.421 28.293C348.454 28.293 347.636 27.7809 347.369 27.0771H345.297C344.872 27.0771 344.669 27.1675 344.565 27.2432C344.461 27.3196 344.392 27.4276 344.318 27.6055C344.3 27.6502 344.282 27.6967 344.263 27.748C344.244 27.7972 344.222 27.8542 344.2 27.9092C344.157 28.0176 344.098 28.1503 344.011 28.2754C343.92 28.4063 343.795 28.5335 343.62 28.624C343.447 28.7137 343.255 28.752 343.051 28.752C342.619 28.7519 342.378 28.4278 342.263 28.1943C342.142 27.9492 342.068 27.6366 342.015 27.3203C341.908 26.68 341.861 25.8342 341.809 25.0381C341.755 24.2186 341.694 23.4475 341.567 22.8838C341.51 22.6278 341.445 22.4522 341.384 22.3438C341.381 22.3504 341.376 22.3569 341.373 22.3643C341.285 22.5554 341.203 22.8639 341.13 23.2861C340.985 24.1236 340.902 25.2471 340.804 26.4141C340.707 27.5604 340.596 28.7502 340.391 29.6553C340.289 30.1042 340.154 30.526 339.962 30.8467C339.77 31.1662 339.454 31.4863 338.976 31.4863C338.692 31.4863 338.468 31.3507 338.31 31.1797C338.16 31.0182 338.055 30.812 337.977 30.6055C337.819 30.1907 337.717 29.6329 337.645 29.0146C337.535 28.0805 337.485 26.9194 337.451 25.7158L337.393 23.292C337.361 22.0982 337.319 20.9755 337.223 20.082C337.158 19.4822 337.073 19.0232 336.968 18.7256C336.95 18.6758 336.931 18.6355 336.915 18.6016C336.903 18.6235 336.888 18.6482 336.874 18.6787C336.766 18.9148 336.668 19.2882 336.587 19.7891C336.426 20.7821 336.348 22.1201 336.276 23.4941C336.205 24.8506 336.139 26.2439 335.996 27.2949C335.925 27.8162 335.831 28.2918 335.69 28.6484C335.621 28.826 335.526 29.0084 335.392 29.1533C335.249 29.3068 335.041 29.4355 334.775 29.4355C334.371 29.4355 334.087 29.2004 333.908 28.9355C333.738 28.6835 333.63 28.3605 333.553 28.0361C333.436 27.5461 333.367 26.9437 333.312 26.3359L333.211 25.123C333.159 24.5315 333.101 23.9916 333.006 23.5664C332.942 23.2805 332.872 23.0941 332.806 22.9902C332.791 22.967 332.777 22.9541 332.77 22.9453C332.722 22.9557 332.636 23.0087 332.522 23.2812C332.383 23.616 332.292 24.0734 332.173 24.6172C332.061 25.1241 331.924 25.7101 331.677 26.1689C331.417 26.6511 330.985 27.0771 330.288 27.0771H326V26.0771H330.288C330.486 26.0771 330.638 25.9873 330.796 25.6943C330.966 25.3779 331.081 24.9292 331.196 24.4023C331.304 23.9128 331.416 23.3368 331.6 22.8965C331.781 22.4626 332.125 21.9424 332.798 21.9424L332.944 21.9541C333.273 22.0052 333.504 22.2239 333.649 22.4531C333.809 22.7044 333.91 23.026 333.982 23.3486C334.127 23.9989 334.194 24.8509 334.259 25.6484C334.326 26.4722 334.391 27.2418 334.525 27.8057C334.589 28.0717 334.66 28.2492 334.726 28.3555C334.735 28.3344 334.749 28.3113 334.76 28.2832C334.855 28.0419 334.937 27.6629 335.006 27.1592C335.142 26.1599 335.206 24.8187 335.278 23.4414C335.35 22.0819 335.428 20.6861 335.6 19.6289C335.685 19.1046 335.799 18.6226 335.965 18.2607C336.116 17.9308 336.41 17.5 336.938 17.5L337.043 17.5068ZM325.836 26.5771L325.838 27.0771L110.001 27.6494L109.999 26.6494L325.835 26.0771L325.836 26.5771Z" fill="#5229C0"/>
</svg>
