<svg width="28" height="22" viewBox="0 0 28 22" fill="none" xmlns="http://www.w3.org/2000/svg">
<path fill-rule="evenodd" clip-rule="evenodd" d="M18.1196 14.891C18.1016 14.8844 18.0837 14.8778 18.0656 14.8713L18.1196 14.891Z" fill="#FF6C00"/>
<path fill-rule="evenodd" clip-rule="evenodd" d="M2.84089 5.01647C2.75452 5.21304 2.66609 5.41431 2.62065 5.61703C2.31757 5.60729 1.59892 5.35579 1.40142 5.13764C1.03898 5.17283 0.984632 5.3986 0.926792 5.63889C0.904559 5.73125 0.881811 5.82575 0.84085 5.9124C0.755644 6.14467 0.650178 6.38411 0.549824 6.61195C0.487052 6.75446 0.426272 6.89245 0.373711 7.02128C0.320502 7.1517 0.284246 7.28899 0.248572 7.42407C0.189229 7.64878 0.131493 7.86741 0 8.03816C0.00565333 8.06894 0.00655564 8.09597 0.00735604 8.11995C0.00893681 8.16731 0.0101213 8.20279 0.0467138 8.23185C0.130932 8.29875 0.279601 8.32772 0.426148 8.35627C0.525576 8.37565 0.624026 8.39483 0.700709 8.42554C0.805681 8.46757 0.924424 8.52212 1.0438 8.57696C1.20349 8.65032 1.36432 8.7242 1.49484 8.76934C1.37339 9.10578 1.26105 9.43899 1.1505 9.7669C0.974753 10.2882 0.803474 10.7963 0.607281 11.2825C0.555474 11.4109 0.524641 11.5483 0.494377 11.6831C0.447276 11.893 0.401551 12.0968 0.280283 12.2509C0.294386 12.5494 0.44822 12.5798 0.640335 12.6178C0.718673 12.6333 0.803375 12.65 0.887564 12.6867C1.44883 12.9314 2.08713 13.1702 2.62065 13.3695C2.58524 13.9612 2.32144 14.492 2.09352 14.9505C2.06614 15.0056 2.03926 15.0597 2.01337 15.1127C1.99767 15.1903 1.98453 15.2706 1.97138 15.3509C1.92588 15.6289 1.88024 15.9077 1.72841 16.0763C1.73495 16.4474 2.00876 16.5114 2.28922 16.577C2.38528 16.5995 2.48212 16.6222 2.56926 16.6574C3.1019 16.8727 3.68788 17.1096 4.20425 17.2917C4.31334 17.3635 4.41608 17.3884 4.50984 17.4111C4.58559 17.4294 4.65548 17.4463 4.7181 17.4854H4.95167C5.04154 17.4653 5.06831 17.3125 5.09618 17.1536C5.10832 17.0844 5.12067 17.0139 5.13853 16.9528C5.22711 16.7421 5.3076 16.5075 5.39283 16.259C5.44539 16.1057 5.49978 15.9471 5.55895 15.7858C5.98223 14.6315 6.43928 13.3954 6.86694 12.2509C6.89873 12.1659 6.94814 11.9681 7.00039 11.759C7.07507 11.4601 7.15554 11.138 7.19861 11.0888C7.29141 11.0352 7.37696 11.0513 7.45961 11.0669C7.55957 11.0857 7.6553 11.1038 7.75451 10.9968C7.86324 10.938 7.89191 10.8078 7.92654 10.6504C7.94279 10.5766 7.96034 10.4968 7.98808 10.4157C8.16909 10.0207 8.37225 9.48977 8.5066 9.05503C8.57916 8.9239 8.61718 8.78615 8.65365 8.65401C8.69644 8.49896 8.7371 8.35164 8.82893 8.23185C8.77132 8.03968 8.60266 7.94897 8.44528 7.86432L8.4085 7.84447C8.45839 7.44218 8.6123 7.06783 8.76301 6.70127C8.81831 6.56677 8.87319 6.43328 8.92236 6.29979C8.93794 6.24894 8.9535 6.17631 8.96907 6.10367C8.98464 6.03104 9.00021 5.95841 9.01578 5.90756C9.14929 5.5776 9.28082 5.22262 9.41224 4.86791C9.54425 4.51164 9.6762 4.15551 9.80992 3.82539C9.86144 3.6982 9.87093 3.58322 9.88067 3.46529C9.88656 3.39386 9.89255 3.32128 9.90802 3.24432C10.0915 2.88017 10.2652 2.44889 10.4218 2.06003C10.452 1.98486 10.4817 1.91126 10.5106 1.84006C10.5388 1.7707 10.5515 1.70513 10.5634 1.6433C10.5802 1.55629 10.5955 1.47666 10.6508 1.40426C10.6242 1.10935 10.3761 1.05616 10.1115 0.999434C10.0112 0.977929 9.9085 0.955915 9.81459 0.92003C9.47634 0.754328 9.02536 0.554391 8.60003 0.387381C8.47372 0.324761 8.33045 0.286059 8.18337 0.246331C7.97481 0.189994 7.75861 0.131593 7.57232 0C7.33516 0.0242814 7.27744 0.259061 7.22219 0.483773C7.20043 0.572301 7.17905 0.659266 7.14723 0.731182C7.06049 0.979747 6.98345 1.22353 6.90674 1.46622C6.80643 1.78362 6.70668 2.09921 6.58666 2.42113C6.5611 2.48968 6.52052 2.55913 6.47683 2.63391C6.43669 2.70261 6.39393 2.77581 6.35776 2.85694C5.91429 2.81659 5.47267 2.60516 5.06157 2.40834C4.92796 2.34437 4.79757 2.28195 4.67139 2.22744C4.59535 2.1946 4.52177 2.17818 4.45217 2.16265C4.3419 2.13805 4.24165 2.11569 4.15754 2.03375C3.81416 2.04609 3.74441 2.35709 3.67665 2.65924C3.65348 2.76255 3.63054 2.86483 3.59697 2.95378L3.55231 3.07218C3.38805 3.50771 3.20612 3.99012 3.0364 4.40646C3.02863 4.43309 3.02084 4.48152 3.01305 4.52994C3.00526 4.57836 2.99747 4.62678 2.98969 4.65342C2.94829 4.77205 2.895 4.89334 2.84089 5.01647ZM12.5809 5.68623C12.2698 5.53572 11.9155 5.36433 11.5383 5.33133C11.4252 5.45251 11.2941 5.5243 11.1662 5.59438C11.0504 5.65776 10.9373 5.71973 10.8423 5.81556C10.7917 5.94915 10.7684 6.08894 10.745 6.22876C10.7221 6.3657 10.6992 6.50268 10.6508 6.6339C10.5909 6.79606 10.5178 6.97577 10.4446 7.15576C10.3686 7.34262 10.2923 7.53003 10.2303 7.6992C10.2073 7.76221 10.1956 7.81674 10.185 7.86631C10.1636 7.96648 10.1466 8.04638 10.0482 8.135C10.0675 8.17835 10.0788 8.20843 10.0878 8.23224C10.1023 8.27091 10.1106 8.29306 10.1369 8.32869C10.1942 8.37992 10.244 8.38627 10.2971 8.39306C10.3355 8.39797 10.3757 8.4031 10.4219 8.42554C10.5587 8.46899 10.7581 8.5169 10.9743 8.56886C11.4416 8.68118 11.9876 8.81238 12.1503 8.95819C12.4552 8.92489 12.5233 8.62895 12.5875 8.35032C12.609 8.25695 12.6301 8.16553 12.6595 8.08658C12.7091 7.95324 12.764 7.81063 12.8203 7.66452C12.9482 7.33261 13.083 6.98264 13.178 6.68232C13.2495 6.56948 13.2746 6.45276 13.2992 6.33836C13.3162 6.25915 13.333 6.18104 13.3648 6.10609C13.3566 5.92087 13.2387 5.90044 13.0865 5.87406C13.0117 5.86112 12.9287 5.84673 12.8463 5.81072C12.762 5.77387 12.6733 5.73094 12.5809 5.68623ZM14.6409 6.20283C14.4001 6.07002 14.1155 5.9131 13.7806 5.90756C13.6303 6.23546 13.5174 6.58025 13.4025 6.93105C13.2826 7.29726 13.1604 7.67038 12.9911 8.03816C12.963 8.15793 12.8989 8.31237 12.8335 8.46974C12.7615 8.64308 12.688 8.82003 12.6595 8.95819C12.6391 9.05667 12.6784 9.12713 12.7186 9.19945C12.7696 9.29108 12.8223 9.3857 12.7576 9.5441C12.6807 10.1152 12.5515 10.7056 12.239 10.9968C12.3137 11.2548 12.776 11.4015 13.2024 11.5368C13.4808 11.6252 13.7439 11.7087 13.874 11.8151C14.236 11.801 14.3682 11.2796 14.4755 10.8564C14.5089 10.7246 14.5399 10.6022 14.5747 10.5077L14.6359 10.3416C14.8696 9.7076 15.1188 9.03142 15.3268 8.42554C15.4002 8.30595 15.4217 8.1971 15.4436 8.08636C15.4591 8.00815 15.4748 7.92901 15.509 7.84447C15.5363 7.77716 15.5661 7.70756 15.5963 7.63721C15.7232 7.34128 15.8615 7.01878 15.8874 6.68232C15.7103 6.58325 15.5099 6.522 15.2894 6.45463C15.1395 6.40883 14.9803 6.3602 14.813 6.29494C14.7583 6.26755 14.7009 6.23594 14.6409 6.20283ZM17.5316 7.54123C17.123 7.33955 16.654 7.10808 16.121 7.02128C15.9261 7.48967 15.7571 8.00165 15.5877 8.51488C15.4289 8.99595 15.2698 9.47822 15.0886 9.92664C15.0221 10.0911 14.9695 10.2852 14.9159 10.4828C14.812 10.8659 14.7045 11.2622 14.486 11.481C14.5154 11.9599 15.1388 12.1502 15.6918 12.3191C16.0085 12.4158 16.3022 12.5055 16.448 12.6383C16.772 12.5882 16.8209 12.2901 16.8672 12.0078C16.881 11.9238 16.8946 11.841 16.9151 11.7667C17.3094 10.9 17.6565 9.92408 17.9428 9.05503C18.0596 8.85708 18.3319 7.92916 18.2698 7.89289C18.236 7.75038 18.1282 7.73147 17.9847 7.7063C17.9153 7.69414 17.8376 7.68051 17.756 7.65078C17.6833 7.61609 17.6085 7.57919 17.5316 7.54123ZM19.5909 8.6014C19.2888 8.43998 18.9323 8.24947 18.5454 8.23185C18.2809 8.72429 18.0851 9.32676 17.8931 9.91758C17.7719 10.2905 17.6522 10.6588 17.5177 10.9919C17.4654 11.1215 17.4317 11.2672 17.3982 11.4123C17.3421 11.6554 17.2864 11.8967 17.144 12.0572V12.3478C17.195 12.4562 17.3673 12.4935 17.5288 12.5285C17.6118 12.5465 17.6919 12.5638 17.7513 12.5899C17.8471 12.6319 17.948 12.6787 18.0525 12.7271C18.4282 12.9011 18.8502 13.0966 19.2461 13.171C19.5793 12.7923 19.7094 12.2512 19.8448 11.6882C19.8923 11.4907 19.9404 11.2905 19.9982 11.0936C20.0408 11.0048 20.0866 10.916 20.1329 10.8261C20.3636 10.3778 20.609 9.90127 20.5588 9.24872C20.5446 9.22387 20.531 9.19469 20.5163 9.16343C20.4667 9.05766 20.4058 8.92802 20.2785 8.86134C20.2196 8.80233 20.1401 8.78844 20.0404 8.77102C19.9732 8.75927 19.8968 8.74592 19.8114 8.71607C19.7418 8.68205 19.6679 8.64258 19.5909 8.6014ZM22.8478 5.81556C23.2645 5.84624 23.5718 6.01242 23.8411 6.15806C23.934 6.20826 24.0223 6.25602 24.109 6.29494C24.3692 6.39273 24.6208 6.47778 24.864 6.56002C25.2912 6.70445 25.693 6.84028 26.071 7.02128C26.1197 7.02537 26.1384 7.09165 26.1524 7.14132L26.1562 7.15461L26.1598 7.16655C26.0511 7.30518 26.0021 7.4881 25.9512 7.67818C25.91 7.83235 25.8674 7.99123 25.7907 8.135C25.7307 8.31978 25.6503 8.51348 25.5672 8.71354C25.4059 9.10186 25.2347 9.51419 25.1835 9.93148C25.7447 10.2003 26.3434 10.4464 26.8184 10.6094C26.9312 10.6628 27.044 10.6899 27.145 10.7142C27.37 10.7684 27.5372 10.8087 27.5192 11.0936C27.4442 11.2368 27.4054 11.4035 27.3658 11.5739C27.3237 11.7549 27.2807 11.9401 27.1922 12.1057C27.1503 12.2359 27.1094 12.3679 27.0682 12.5005C26.9484 12.8866 26.8264 13.2796 26.6736 13.66C26.635 13.7799 26.5907 13.8825 26.547 13.9837C26.467 14.1692 26.389 14.35 26.3513 14.6236C26.7652 14.7789 27.2 14.9463 27.5192 15.1079C27.6332 15.1107 27.7332 15.1424 27.8193 15.1698C27.8825 15.1898 27.9382 15.2075 27.9863 15.2096V15.4952C27.8996 15.6391 27.8619 15.8199 27.822 16.0112C27.7842 16.1924 27.7445 16.383 27.6593 16.5605C27.5904 16.8648 27.4416 17.2669 27.2856 17.5774C27.2698 17.6446 27.26 17.7168 27.2502 17.7891C27.2134 18.0606 27.1764 18.3339 26.8184 18.3522C26.6926 18.2086 25.5231 17.7861 25.1835 17.7711C25.0954 18.0376 25.0098 18.3097 24.9237 18.5836C24.6236 19.5371 24.3164 20.5134 23.8755 21.3592C23.5366 21.296 23.1967 21.136 22.8429 20.9694C22.3931 20.7576 21.9208 20.5352 21.3996 20.4876C21.4028 20.7344 21.0287 21.9089 20.8858 21.9403H17.3309C17.3038 21.9061 17.292 21.8682 17.2421 21.6982C17.4674 21.4745 17.6121 20.9425 17.7458 20.4507C17.8098 20.215 17.8714 19.9885 17.9381 19.8097C18.1536 19.3067 18.3247 18.7524 18.5012 18.1804C18.5917 17.8875 18.6837 17.5894 18.7837 17.2917L18.8395 17.1856C19.0922 16.7068 19.3987 16.1258 19.3909 15.4952C19.2977 15.469 19.2235 15.4158 19.1441 15.359C19.0672 15.3039 18.9855 15.2454 18.8771 15.2047C18.6341 15.0787 18.354 14.9765 18.0656 14.8713C17.9326 14.8227 17.7962 14.773 17.6625 14.7205C17.5122 14.6451 17.3586 14.6076 17.1913 14.5668C17.049 14.5321 16.8968 14.4949 16.7283 14.4299C16.1654 14.1751 15.5546 13.9409 14.9401 13.7054C14.4066 13.5008 13.8701 13.2952 13.3602 13.0741C13.0458 12.9378 12.6836 12.8289 12.3168 12.7185C11.639 12.5146 10.9457 12.306 10.5106 11.912V11.8635C10.6117 11.7786 10.6256 11.7774 10.7112 11.7701L10.7334 11.7681L10.7489 11.7667C11.0507 11.9616 11.3121 11.8105 11.573 11.6596C11.7879 11.5354 12.0025 11.4113 12.239 11.481C12.3791 11.5454 12.5246 11.6152 12.6719 11.6859C13.0846 11.884 13.5121 12.0892 13.8787 12.2025C14.071 12.2515 14.176 12.2162 14.27 12.1846C14.3702 12.151 14.4581 12.1215 14.6261 12.2025C14.7957 12.2695 14.9946 12.3614 15.2051 12.4586C15.6941 12.6844 16.2453 12.9389 16.6348 12.9773C16.6685 12.9467 16.7003 12.9148 16.7316 12.8832C16.8472 12.7669 16.9578 12.6556 17.144 12.6383C17.2923 12.7575 17.4826 12.807 17.6696 12.8556C17.7983 12.8891 17.9255 12.9221 18.0362 12.9773C18.1949 13.0378 18.3628 13.1179 18.5297 13.1976C18.7466 13.3011 18.9617 13.4037 19.1527 13.4615C19.2917 13.5035 19.405 13.4467 19.4937 13.4021C19.5247 13.3865 19.5527 13.3724 19.5778 13.3646C19.6236 13.2838 19.6808 13.1406 19.7443 12.9817C19.8793 12.6436 20.0429 12.2342 20.1851 12.2025C20.3156 12.2954 20.4379 12.3298 20.5588 12.3478C20.8327 11.8464 20.9806 11.3017 21.1351 10.7332C21.1894 10.5332 21.2445 10.3302 21.3062 10.1252C21.6565 9.28733 21.9617 8.38628 22.269 7.47895C22.4575 6.92246 22.6468 6.36362 22.8478 5.81556ZM6.77352 21.9403C6.79926 21.6807 6.93668 21.3364 7.06944 21.0038C7.15665 20.7853 7.24185 20.5718 7.29204 20.3908C7.36524 20.2891 7.39635 20.1002 7.38547 19.9986C7.63796 19.4822 7.88638 18.872 8.08151 18.3522C8.17674 18.0985 8.22827 17.8633 8.27999 17.6273C8.31832 17.4524 8.35676 17.277 8.41317 17.0932C8.4468 17.024 8.48204 16.9537 8.5176 16.8828C8.74711 16.4252 8.99743 15.9261 9.01578 15.3064C8.91734 15.2591 8.87373 15.1674 8.81853 15.0513C8.78564 14.9822 8.74863 14.9044 8.69346 14.8222C8.34834 14.219 8.10355 13.5601 7.89465 12.6867V11.6747C8.01883 11.313 8.19932 10.8808 8.37227 10.4667C8.44953 10.2817 8.52627 10.0979 8.59536 9.92664C8.63709 9.82319 8.68002 9.66432 8.72739 9.48906C8.84408 9.05718 8.98787 8.52503 9.20731 8.47396C9.335 8.5507 9.49498 8.56003 9.65365 8.56928C9.77361 8.57628 9.89282 8.58323 9.99677 8.61923C10.2265 8.69878 10.478 8.7764 10.7286 8.85373C11.0485 8.95244 11.3669 9.05068 11.6364 9.15188C11.7727 9.19495 11.8981 9.21215 12.008 9.22723C12.2978 9.26701 12.4801 9.29204 12.4726 9.73779C12.3903 9.86735 12.3474 10.0256 12.3046 10.1833C12.2641 10.3326 12.2238 10.4813 12.1503 10.6046C12.0295 10.9826 11.6037 11.3934 11.2113 11.481C11.0011 11.5839 10.7753 11.5147 10.5522 11.4463C10.4771 11.4233 10.4022 11.4004 10.3284 11.3842C10.3058 11.4856 10.2758 11.5721 10.2462 11.6573C10.1954 11.8032 10.1459 11.9456 10.1369 12.1541C11.2458 12.6679 12.4393 13.1086 13.6329 13.5493C14.6494 13.9246 15.6659 14.3 16.6301 14.7205C16.8857 14.8319 17.1442 14.9213 17.3971 15.0087C17.5815 15.0725 17.7629 15.1352 17.9381 15.2047C17.9777 15.2204 18.0432 15.2376 18.1145 15.2562C18.2673 15.2962 18.4468 15.3432 18.4567 15.3984V15.6889C18.4372 15.7283 18.4245 15.7745 18.4114 15.8221C18.385 15.9178 18.3572 16.019 18.2698 16.0812C18.0949 16.4588 17.3968 16.9631 17.0085 17.19C16.9296 17.2526 16.777 17.325 16.6144 17.4023C16.3628 17.5218 16.0872 17.6528 16.0229 17.776C15.9117 17.9409 15.8563 18.1398 15.802 18.3347C15.7511 18.5175 15.7012 18.6969 15.6071 18.8412C15.5917 19.0001 15.4592 19.1143 15.359 19.2007C15.3478 19.2104 15.337 19.2197 15.3268 19.2286C15.301 19.3309 15.284 19.4275 15.2675 19.5209C15.2327 19.718 15.2003 19.9013 15.0933 20.0954C15.0602 20.281 14.9268 20.5331 14.813 20.6813C14.7794 20.9269 14.5464 21.9167 14.3926 21.9403H6.77352Z" fill="#FF6C00"/>
</svg>
