<svg width="67" height="12" viewBox="0 0 67 12" fill="none" xmlns="http://www.w3.org/2000/svg">
<g opacity="0.95">
<path d="M10.7136 0.055191H22.1163V11.2329H10.7136V0.055191Z" fill="white"/>
<path d="M26.5569 0.051712H63.6157L65.6519 10.3494H26.5569V0.051712Z" fill="white"/>
<path d="M61.1405 9.28927H62.991C63.3645 9.28927 63.6686 9.25629 63.9032 9.19033C64.1378 9.11494 64.3245 9.00657 64.4636 8.86522C64.6026 8.71444 64.6981 8.53069 64.7502 8.31395C64.8111 8.08778 64.8458 7.82864 64.8545 7.53651L64.9718 3.77656C64.9805 3.48443 64.9588 3.22529 64.9066 2.99913C64.8545 2.77296 64.7546 2.58921 64.6069 2.44786C64.4679 2.29708 64.2768 2.184 64.0335 2.10861C63.7902 2.03322 63.4818 1.99553 63.1083 1.99553H61.362L61.1405 9.28927ZM61.1014 10.3494H59.9546L60.2413 0.935394H63.2255C63.7207 0.935394 64.1508 1.00607 64.5157 1.14742C64.8893 1.27935 65.1977 1.45839 65.4409 1.68456C65.6842 1.9013 65.8623 2.14631 65.9752 2.41959C66.0882 2.69287 66.1403 2.97086 66.1316 3.25356L65.9492 8.17259C65.9405 8.4553 65.8797 8.72858 65.7667 8.99243C65.6538 9.24687 65.48 9.47774 65.2455 9.68506C65.0109 9.88295 64.7112 10.0431 64.3463 10.1657C63.9901 10.2882 63.56 10.3494 63.0561 10.3494H61.1014Z" fill="url(#paint0_linear_200_5574)"/>
<path d="M59.1023 10.3494H57.8122L56.4048 6.75908C56.3266 6.7685 56.2441 6.77321 56.1572 6.77321C56.0703 6.77321 55.9791 6.77321 55.8835 6.77321H54.3588L54.2415 10.3494H53.0947L53.3814 0.935394H56.3526C56.8478 0.935394 57.2692 1.00136 57.6167 1.13329C57.9642 1.26521 58.2466 1.44897 58.4638 1.68456C58.681 1.92014 58.8374 2.20285 58.9329 2.53267C59.0372 2.86249 59.0893 3.23 59.0893 3.63521C59.0893 4.01215 59.0676 4.36081 59.0241 4.68121C58.9894 4.99218 58.9155 5.27018 58.8026 5.51519C58.6897 5.76019 58.5289 5.97222 58.3204 6.15127C58.1206 6.32089 57.86 6.45753 57.5385 6.56119L59.1023 10.3494ZM54.3849 5.67067H55.8574C56.1702 5.67067 56.4526 5.66125 56.7045 5.6424C56.9651 5.62355 57.1867 5.55759 57.3691 5.44451C57.5516 5.33143 57.6906 5.15238 57.7861 4.90737C57.8904 4.66236 57.9425 4.3137 57.9425 3.86137C57.9425 3.53155 57.9208 3.24885 57.8774 3.01326C57.8339 2.77768 57.7514 2.5845 57.6298 2.43372C57.5168 2.28295 57.3604 2.17458 57.1606 2.10861C56.9608 2.03322 56.7002 1.99553 56.3787 1.99553H54.5022L54.3849 5.67067Z" fill="url(#paint1_linear_200_5574)"/>
<path d="M51.8472 7.76271C51.8385 8.09253 51.782 8.42235 51.6778 8.75217C51.5822 9.07257 51.4171 9.35998 51.1826 9.61441C50.948 9.86885 50.6352 10.0762 50.2443 10.2364C49.862 10.3871 49.3755 10.4625 48.7847 10.4625C48.2113 10.4625 47.7248 10.3824 47.3252 10.2222C46.9342 10.062 46.6171 9.85471 46.3739 9.60028C46.1306 9.34585 45.9569 9.05843 45.8526 8.73803C45.757 8.41764 45.7136 8.09724 45.7223 7.77684L45.8526 3.49389C45.8613 3.16407 45.9134 2.83896 46.009 2.51857C46.1132 2.18875 46.2826 1.89662 46.5172 1.64219C46.7518 1.37833 47.0602 1.1663 47.4425 1.00611C47.8334 0.845907 48.3243 0.765808 48.915 0.765808C49.4884 0.765808 49.9706 0.845907 50.3616 1.00611C50.7612 1.1663 51.0826 1.37362 51.3259 1.62805C51.5692 1.88249 51.7386 2.1699 51.8341 2.4903C51.9384 2.81069 51.9862 3.13109 51.9775 3.45149L51.8472 7.76271ZM50.7134 3.819C50.7221 3.52687 50.7004 3.26773 50.6483 3.04157C50.5961 2.81541 50.5006 2.62694 50.3616 2.47616C50.2312 2.32539 50.0488 2.21231 49.8142 2.13692C49.5797 2.05211 49.2799 2.0097 48.915 2.0097C48.5502 2.0097 48.2548 2.0474 48.0289 2.12278C47.803 2.19817 47.6206 2.31125 47.4816 2.46203C47.3512 2.6128 47.26 2.80127 47.2079 3.02743C47.1558 3.24417 47.1254 3.4986 47.1167 3.79073L46.9864 7.38106C46.9777 7.67319 46.995 7.93704 47.0385 8.17263C47.0906 8.39879 47.1862 8.59668 47.3252 8.76631C47.4642 8.9265 47.651 9.04901 47.8855 9.13382C48.1201 9.21863 48.4198 9.26103 48.7847 9.26103C49.1409 9.26103 49.432 9.21863 49.6578 9.13382C49.8837 9.04901 50.0618 8.9265 50.1921 8.76631C50.3311 8.60611 50.4267 8.41293 50.4788 8.18676C50.5397 7.95118 50.5744 7.68732 50.5831 7.3952L50.7134 3.819Z" fill="url(#paint2_linear_200_5574)"/>
<path d="M41.3847 10.3494C40.8286 10.3494 40.3899 10.1609 40.0685 9.784C39.7557 9.39764 39.6167 8.82752 39.6515 8.07365L39.86 3.22529C39.8947 2.49026 40.0511 1.92486 40.3291 1.52907C40.6158 1.13329 41.0849 0.935394 41.7365 0.935394H44.9944L44.9684 1.99553H42.2839C41.8147 1.99553 41.4889 2.09448 41.3065 2.29237C41.1327 2.48084 41.0372 2.78239 41.0198 3.19702L40.8243 7.91816C40.8069 8.21029 40.82 8.44587 40.8634 8.62492C40.9068 8.80397 40.9763 8.94532 41.0719 9.04897C41.1762 9.14321 41.3108 9.20917 41.4759 9.24687C41.6496 9.27514 41.8538 9.28927 42.0884 9.28927H44.8772L44.8511 10.3494H41.3847Z" fill="url(#paint3_linear_200_5574)"/>
<path d="M34.7737 5.98165V9.28927H38.7223V10.3494H33.4966V0.935394H38.7223V1.99553H34.891V4.92151H38.4486V5.98165H34.7737Z" fill="url(#paint4_linear_200_5574)"/>
<path d="M32.6448 10.3494H31.3547L29.9473 6.75908C29.8691 6.7685 29.7865 6.77321 29.6996 6.77321C29.6128 6.77321 29.5216 6.77321 29.426 6.77321H27.9013L27.784 10.3494H26.6372L26.9239 0.935394H29.8951C30.3903 0.935394 30.8117 1.00136 31.1592 1.13329C31.5067 1.26521 31.7891 1.44897 32.0063 1.68456C32.2235 1.92014 32.3798 2.20285 32.4754 2.53267C32.5797 2.86249 32.6318 3.23 32.6318 3.63521C32.6318 4.01215 32.6101 4.36081 32.5666 4.68121C32.5319 4.99218 32.458 5.27018 32.3451 5.51519C32.2321 5.76019 32.0714 5.97222 31.8629 6.15127C31.6631 6.32089 31.4025 6.45753 31.081 6.56119L32.6448 10.3494ZM27.9273 5.67067H29.3999C29.7127 5.67067 29.995 5.66125 30.247 5.6424C30.5076 5.62355 30.7292 5.55759 30.9116 5.44451C31.094 5.33143 31.233 5.15238 31.3286 4.90737C31.4329 4.66236 31.485 4.3137 31.485 3.86137C31.485 3.53155 31.4633 3.24885 31.4198 3.01326C31.3764 2.77768 31.2939 2.5845 31.1722 2.43372C31.0593 2.28295 30.9029 2.17458 30.7031 2.10861C30.5033 2.03322 30.2426 1.99553 29.9212 1.99553H28.0446L27.9273 5.67067Z" fill="url(#paint5_linear_200_5574)"/>
<path d="M19.7454 9.28927H21.8956L22.1302 0.935394H23.2639L23.0163 10.3494H19.7193H17.0478C16.4484 10.3494 15.9879 10.1515 15.6665 9.75573C15.345 9.35052 15.1973 8.738 15.2234 7.91816L15.471 0.935394H16.6047L16.3571 7.88989C16.3485 8.12548 16.3571 8.33279 16.3832 8.51184C16.4093 8.68146 16.4614 8.82752 16.5396 8.95003C16.6178 9.06311 16.7264 9.14792 16.8654 9.20446C17.0131 9.261 17.2042 9.28927 17.4388 9.28927H18.5986L18.8332 0.935394H19.9669L19.7454 9.28927Z" fill="url(#paint6_linear_200_5574)"/>
<path d="M10.1492 5.98165V9.28927H14.0978V10.3494H8.87207V0.935394H14.0978V1.99553H10.2665V4.92151H13.8241V5.98165H10.1492Z" fill="url(#paint7_linear_200_5574)"/>
<path d="M6.15872 10.3487L2.23619 3.06913L1.98858 10.3487H0.841797L1.12849 0.934723H2.44469L6.21085 8.10125L6.41935 0.934723H7.56614L7.27945 10.3487H6.15872Z" fill="url(#paint8_linear_200_5574)"/>
<path d="M63.2255 0.051712V0.935159H60.2412L59.9541 10.3494H63.0561L63.4196 10.3382C63.7699 10.3152 64.079 10.2575 64.3462 10.1656C64.6654 10.0584 64.9349 9.92247 65.1543 9.75755L65.245 9.68508C65.4796 9.47777 65.653 9.24672 65.766 8.9923C65.8789 8.72848 65.9402 8.45536 65.9489 8.1727L66.1311 3.25335C66.1376 3.04137 66.1102 2.83195 66.0484 2.62527L65.9752 2.41994C65.8623 2.14675 65.6838 1.90156 65.4407 1.68488C65.2582 1.5152 65.0387 1.37187 64.7829 1.25524L64.5156 1.14739C64.1963 1.0237 63.8268 0.954062 63.4077 0.93861L63.2255 0.935159V0.051712C63.7805 0.0517488 64.2994 0.130551 64.767 0.307946C65.2141 0.46587 65.6188 0.691148 65.9569 1.00159C66.2429 1.25641 66.4802 1.55705 66.6497 1.90574L66.7181 2.05845L66.7745 2.20511C66.8971 2.54982 66.9569 2.91099 66.9456 3.28268L66.9448 3.28872L66.7626 8.20807C66.7495 8.61046 66.6617 8.99775 66.5049 9.36414L66.5001 9.37536C66.3276 9.76406 66.0719 10.0941 65.7596 10.3701L65.7453 10.3822C65.4158 10.6601 65.0225 10.8615 64.5912 11.0068C64.1332 11.1643 63.6163 11.2328 63.0561 11.2328H59.1125L59.453 0.051712H63.2255ZM63.1078 1.99547C63.4812 1.99547 63.7896 2.03315 64.0328 2.10849C64.276 2.18383 64.4673 2.29689 64.6063 2.44754C64.7539 2.58884 64.854 2.7728 64.9062 2.99884C64.9583 3.2249 64.9801 3.48419 64.9714 3.77617L64.8545 7.53686C64.8458 7.82884 64.8103 8.08811 64.7495 8.31419C64.6973 8.53078 64.6021 8.71478 64.4631 8.86548C64.3241 9.00677 64.1369 9.11536 63.9024 9.19073L63.7139 9.23387C63.512 9.27096 63.2709 9.28907 62.9909 9.28908V8.40564C63.3207 8.40562 63.5458 8.37525 63.6884 8.33662C63.8067 8.2966 63.8667 8.25422 63.8952 8.22877C63.9224 8.19639 63.9463 8.1562 63.962 8.09074L63.9644 8.07866L63.9676 8.06658C64.0053 7.92634 64.033 7.74318 64.04 7.50839V7.50666L64.1569 3.7477C64.162 3.57509 64.1537 3.43359 64.1362 3.31891L64.1163 3.21366C64.1084 3.17909 64.0994 3.15593 64.0909 3.14033L64.0678 3.11013L64.0487 3.09201L64.0304 3.07217C64.0176 3.05826 63.9823 3.02686 63.904 2.9928L63.8093 2.95829C63.6645 2.91341 63.4381 2.87892 63.1078 2.87892H62.1493L61.9823 8.40564H62.9909V9.28908H61.14L61.3619 1.99547H63.1078Z" fill="white"/>
<path d="M56.3526 0.051712V0.935159H53.3818L53.0947 10.3494H54.2416L54.3586 6.77333H56.1569L56.2842 6.76988C56.3255 6.76752 56.366 6.76338 56.4051 6.75866L57.8122 10.3494H59.1023L57.5385 6.5611C57.7796 6.48337 57.9863 6.38689 58.1589 6.27208L58.3204 6.15129C58.4769 6.01688 58.6067 5.8639 58.7094 5.69231L58.8024 5.51545C58.8871 5.33165 58.9502 5.12901 58.9909 4.90808L59.0243 4.68118C59.0569 4.44086 59.0774 4.18462 59.0856 3.91248L59.0896 3.63554C59.0896 3.23043 59.0371 2.86272 58.9329 2.53296C58.8493 2.24443 58.719 1.99188 58.5423 1.77547L58.4636 1.68488C58.2735 1.4787 58.0337 1.31214 57.7438 1.18535L57.6165 1.13359C57.269 1.0017 56.8477 0.935159 56.3526 0.935159V0.051712C56.8402 0.051712 57.2976 0.108374 57.7111 0.238927L57.8861 0.299319C58.2714 0.445592 58.6216 0.652807 58.917 0.934296L59.0394 1.06026C59.348 1.39499 59.5688 1.79508 59.7028 2.24653C59.8404 2.68204 59.904 3.14848 59.904 3.63554L59.8993 3.94095C59.8902 4.24291 59.8676 4.5328 59.8301 4.80973L59.8285 4.80887C59.783 5.19824 59.6883 5.56933 59.531 5.91059C59.3619 6.27724 59.1231 6.58918 58.8263 6.84407L58.8223 6.84666C58.7557 6.90316 58.6859 6.95526 58.6139 7.00454L59.9565 10.2571L59.9541 10.3494H59.9947L60.3598 11.2328H57.2737L55.8714 7.65678H55.1452L55.0275 11.2328H52.2532L52.5936 0.051712H56.3526ZM57.1281 3.86158C57.1281 3.64275 57.1168 3.46323 57.0987 3.31891L57.0788 3.18691C57.0577 3.07257 57.0276 3.02862 57.0168 3.01523L56.9977 2.99107L56.9961 2.98935C56.9961 2.98935 56.9928 2.98682 56.9889 2.98417L56.9237 2.95397L56.9086 2.9488L56.8935 2.94276C56.8325 2.91975 56.7266 2.89577 56.5626 2.88495L56.3789 2.87892H55.2892L55.2287 4.7873H55.8579V5.67075H54.3848L54.5025 1.99547H56.3789C56.7003 1.99548 56.9609 2.03311 57.1607 2.10849C57.3605 2.17445 57.5171 2.28297 57.63 2.43374C57.7516 2.5845 57.834 2.77798 57.8774 3.0135C57.9208 3.24904 57.9426 3.53187 57.9426 3.86158L57.9331 4.18079C57.9135 4.48134 57.8641 4.72338 57.7859 4.90722C57.6903 5.15223 57.5516 5.33163 57.3691 5.44471L57.2252 5.52063C57.0736 5.58779 56.8997 5.62814 56.7042 5.64228C56.4524 5.6611 56.1703 5.67074 55.8579 5.67075V4.7873C56.156 4.78729 56.4191 4.77858 56.6485 4.76142L56.6501 4.76055C56.8167 4.74851 56.9126 4.71024 56.9651 4.67773C56.9677 4.67612 56.9977 4.66073 57.0359 4.56299L57.047 4.5371C57.0793 4.46107 57.1281 4.26091 57.1281 3.86158Z" fill="white"/>
<path d="M48.9551 0.189752C49.5925 0.189765 50.1392 -0.0295534 50.6493 0.179399C51.0662 0.347032 51.4425 0.569749 51.7589 0.861828L51.8917 0.992102C52.2225 1.33811 52.4688 1.74767 52.6091 2.21806C52.7401 2.62814 52.8037 3.0495 52.7921 3.47766V3.48025L52.6616 7.79137C52.6503 8.20872 52.5785 8.62004 52.4524 9.02336C52.3145 9.48573 52.0781 9.89267 51.7589 10.239C51.4242 10.6019 51.0042 10.8695 50.5324 11.0629L50.5228 11.0663C50.0208 11.2644 49.4315 11.3459 48.7849 11.3459C48.1464 11.3459 47.5583 11.2574 47.043 11.0508L47.0374 11.0482C46.6257 10.8795 46.2537 10.6559 45.9398 10.3649L45.8086 10.2364C45.5224 9.93706 45.2973 9.59169 45.1452 9.20195L45.0848 9.03199L45.0808 9.02077L45.0776 9.00956C44.9549 8.59806 44.8966 8.17711 44.9082 7.75082V7.74737L45.0386 3.46472C45.0499 3.05068 45.1158 2.64382 45.2343 2.24653L45.2367 2.23963L45.2391 2.23186C45.3849 1.77068 45.622 1.36353 45.9414 1.01712C46.272 0.649147 46.684 0.37679 47.1488 0.181988L47.1552 0.179399C47.6675 -0.0304803 48.3036 0.189752 48.9551 0.189752ZM48.9153 0.766064C48.3246 0.766064 47.8332 0.845707 47.4423 1.00591C47.0602 1.16606 46.7518 1.37801 46.5172 1.64175C46.2827 1.89614 46.1133 2.18853 46.009 2.51829C45.9134 2.83869 45.8618 3.16423 45.8531 3.49405L45.7227 7.7767C45.714 8.09708 45.7575 8.41742 45.8531 8.7378C45.9574 9.05819 46.1308 9.3461 46.3741 9.60054C46.6173 9.85489 46.9345 10.0624 47.3254 10.2226C47.6751 10.3627 48.0914 10.4415 48.5741 10.459L48.7849 10.4624C49.302 10.4624 49.7392 10.4045 50.0965 10.289L50.2444 10.2364C50.5864 10.0962 50.8684 9.91977 51.0907 9.70752L51.183 9.61434C51.4174 9.36005 51.5822 9.07264 51.6777 8.75246C51.756 8.50496 51.8076 8.25714 51.832 8.00964L51.8472 7.7629L51.9776 3.45178C51.9863 3.13138 51.9387 2.81022 51.8344 2.48982C51.7508 2.20949 51.6104 1.9544 51.4137 1.72457L51.3262 1.62794C51.0829 1.37351 50.761 1.1661 50.3614 1.00591C50.0194 0.86584 49.6076 0.787043 49.1261 0.769515L48.9153 0.766064ZM49.177 2.0179C49.426 2.03381 49.6383 2.07343 49.8141 2.13696C50.0486 2.21231 50.2311 2.32536 50.3614 2.47602C50.5003 2.62671 50.5964 2.81511 50.6485 3.04111C50.7006 3.26728 50.7224 3.52718 50.7137 3.81931L50.5833 7.39537C50.5746 7.68732 50.5398 7.95103 50.4791 8.1865C50.427 8.41267 50.3309 8.60607 50.1919 8.76627C50.0617 8.92632 49.8839 9.04902 49.6582 9.13379L49.4761 9.18901C49.2823 9.23668 49.052 9.26062 48.7849 9.26062V8.37717C49.0904 8.37717 49.2826 8.33964 49.3918 8.29866C49.513 8.25312 49.5625 8.20519 49.5819 8.18133L49.5994 8.16062C49.6371 8.11707 49.6681 8.061 49.6885 7.97254L49.6948 7.94839C49.7349 7.79295 49.7626 7.60119 49.7696 7.3669V7.36L49.8992 3.79084L49.9 3.62778C49.8976 3.52653 49.8901 3.43834 49.8786 3.36205L49.8579 3.25594C49.8381 3.17015 49.8105 3.12776 49.7855 3.10064L49.7768 3.09115L49.7672 3.07994C49.7612 3.07313 49.7355 3.04672 49.6678 3.01609L49.5827 2.98417L49.57 2.97986L49.5572 2.97468C49.4351 2.93054 49.2302 2.89273 48.9153 2.89272C48.5927 2.89272 48.3869 2.9275 48.2687 2.96692C48.1564 3.00438 48.0983 3.04805 48.0675 3.07821C48.0453 3.1073 48.0183 3.15466 47.9983 3.24127L47.9959 3.25076C47.9629 3.38801 47.9379 3.57442 47.9307 3.81931V3.82535L47.8002 7.41608C47.7939 7.64076 47.8075 7.82628 47.8336 7.97772C47.8531 8.05228 47.8825 8.11122 47.9219 8.16321C47.9439 8.18772 47.9831 8.22341 48.0555 8.25897L48.143 8.29607C48.2651 8.34022 48.47 8.37717 48.7849 8.37717V9.26062L48.5232 9.25285C48.3571 9.24224 48.2074 9.22081 48.0738 9.18901L47.8853 9.13379C47.6509 9.04899 47.4643 8.92638 47.3254 8.76627C47.1864 8.5967 47.0912 8.39878 47.039 8.1727C46.9956 7.93711 46.9778 7.67283 46.9865 7.3807L47.117 3.79084C47.1257 3.49871 47.1563 3.24405 47.2084 3.02731C47.2475 2.85775 47.3083 2.70931 47.3914 2.58213L47.4821 2.46221C47.5863 2.34914 47.7147 2.2568 47.8678 2.18614L48.0293 2.12316C48.2552 2.04779 48.5505 2.00927 48.9153 2.00927L49.177 2.0179Z" fill="white"/>
<path d="M41.7368 0.051712V0.935159C41.0855 0.935189 40.6165 1.13319 40.3298 1.52873C40.0518 1.92444 39.8953 2.49004 39.8605 3.22487L39.6521 8.07348C39.6174 8.82736 39.7561 9.39794 40.0689 9.7843C40.3502 10.1141 40.7215 10.2996 41.1825 10.3408L41.3853 10.3494H44.8516L44.8778 9.28908H42.0892V8.40564H45.7138L45.6661 10.3727L45.6446 11.2328H41.3853C40.6917 11.2328 40.0577 11.0051 39.567 10.4909L39.4708 10.3839L39.4636 10.3753L39.4573 10.3666C38.9511 9.74134 38.798 8.90626 38.8384 8.02948L39.0468 3.18433V3.18001C39.0862 2.34789 39.2671 1.58402 39.6816 0.993826L39.6895 0.983473C40.1862 0.297783 40.942 0.0517422 41.7368 0.051712ZM45.8315 0.051712L45.7615 2.87892H42.2841C42.0976 2.87893 41.9777 2.89914 41.9078 2.92033C41.8973 2.92353 41.8886 2.92716 41.8816 2.92982C41.8798 2.93473 41.8774 2.94034 41.8752 2.94707C41.8671 2.97264 41.8581 3.00823 41.8506 3.05578L41.8339 3.23695L41.6382 7.95787V7.9665L41.6374 7.97513C41.6246 8.19099 41.6375 8.31681 41.6486 8.37803C41.7643 8.39361 41.91 8.40564 42.0892 8.40564V9.28908L41.7599 9.27873L41.4767 9.24681C41.3118 9.20915 41.1769 9.14332 41.0727 9.04924C40.9771 8.94558 40.9069 8.80382 40.8635 8.62477C40.8201 8.44577 40.8072 8.21017 40.8245 7.91819L41.0202 3.19727C41.0376 2.78264 41.1336 2.48072 41.3073 2.29225C41.4898 2.09457 41.8153 1.9955 42.2841 1.99547H44.9685L44.9948 0.935159H41.7368V0.051712H45.8315Z" fill="white"/>
<path d="M33.4964 0.935159V10.3494H38.7221V9.28908H34.7738V5.98133H38.4485V4.92189H34.8907V1.99547H38.7221V0.935159H33.4964ZM39.5366 2.87892H35.7052V4.03844H39.2629V6.86478H35.5882V8.40564H39.5366V11.2328H32.6819V0.051712H39.5366V2.87892Z" fill="white"/>
<path d="M29.8951 0.051712V0.935159H26.9243L26.6372 10.3494H27.7841L27.9011 6.77333H29.6994L29.8267 6.76988C29.868 6.76752 29.9085 6.76338 29.9476 6.75866L31.3546 10.3494H32.6448L31.081 6.5611C31.3221 6.48337 31.5288 6.38689 31.7014 6.27208L31.8629 6.15129C32.0194 6.01688 32.1492 5.8639 32.2518 5.69231L32.3449 5.51545C32.4296 5.33165 32.4927 5.12901 32.5334 4.90808L32.5668 4.68118C32.5994 4.44086 32.6199 4.18462 32.6281 3.91248L32.632 3.63554C32.632 3.23043 32.5795 2.86272 32.4753 2.53296C32.3917 2.24443 32.2615 1.99188 32.0848 1.77547L32.0061 1.68488C31.816 1.4787 31.5761 1.31214 31.2862 1.18535L31.159 1.13359C30.8115 1.0017 30.3902 0.935159 29.8951 0.935159V0.051712C30.3826 0.051712 30.8401 0.108374 31.2536 0.238927L31.4286 0.299319C31.8138 0.445592 32.1641 0.652807 32.4594 0.934296L32.5819 1.06026C32.8905 1.39499 33.1112 1.79508 33.2453 2.24653C33.3829 2.68204 33.4465 3.14848 33.4465 3.63554L33.4417 3.94095C33.4327 4.24291 33.4101 4.5328 33.3725 4.80973L33.371 4.80887C33.3255 5.19824 33.2308 5.56933 33.0735 5.91059C32.9044 6.27724 32.6656 6.58918 32.3688 6.84407L32.3648 6.84666C32.2982 6.90316 32.2284 6.95526 32.1564 7.00454L33.4966 10.2502V10.3494H33.5372L33.9023 11.2328H30.8162L29.4139 7.65678H28.6877L28.57 11.2328H25.7957L26.1361 0.051712H29.8951ZM30.6706 3.86158C30.6706 3.64275 30.6593 3.46323 30.6412 3.31891L30.6213 3.18691C30.6002 3.07257 30.5701 3.02862 30.5592 3.01523L30.5402 2.99107L30.5386 2.98935C30.5386 2.98935 30.5352 2.98682 30.5314 2.98417L30.4662 2.95397L30.4511 2.9488L30.436 2.94276C30.375 2.91975 30.2691 2.89577 30.1051 2.88495L29.9213 2.87892H28.8317L28.7712 4.7873H29.4004V5.67075H27.9273L28.045 1.99547H29.9213C30.2428 1.99548 30.5034 2.03311 30.7032 2.10849C30.903 2.17445 31.0596 2.28297 31.1725 2.43374C31.2941 2.5845 31.3764 2.77798 31.4199 3.0135C31.4633 3.24904 31.4851 3.53187 31.4851 3.86158L31.4755 4.18079C31.456 4.48134 31.4066 4.72338 31.3284 4.90722C31.2328 5.15223 31.094 5.33163 30.9116 5.44471L30.7676 5.52063C30.6161 5.58779 30.4422 5.62814 30.2467 5.64228C29.9949 5.6611 29.7128 5.67074 29.4004 5.67075V4.7873C29.6984 4.78729 29.9616 4.77858 30.191 4.76142L30.1926 4.76055C30.3592 4.74851 30.455 4.71024 30.5075 4.67773C30.5101 4.67612 30.5402 4.66073 30.5783 4.56299L30.5895 4.5371C30.6218 4.46107 30.6706 4.26091 30.6706 3.86158Z" fill="white"/>
<path d="M17.4515 0.051712L17.1707 7.92423V8.18219C17.1737 8.25329 17.1793 8.31455 17.1867 8.36681C17.1876 8.37275 17.1897 8.37804 17.1906 8.3832C17.2397 8.39317 17.3193 8.40564 17.4388 8.40564V9.28908L17.271 9.28391C17.1644 9.27683 17.0686 9.26288 16.9838 9.24163L16.8653 9.20453C16.7263 9.14799 16.6174 9.06311 16.5392 8.95003C16.4611 8.82754 16.4094 8.68133 16.3833 8.51175C16.3572 8.33271 16.3484 8.12529 16.3571 7.88972L16.6044 0.935159H15.471L15.2236 7.91819C15.1976 8.73801 15.3452 9.35062 15.6667 9.75583C15.9881 10.1514 16.4482 10.3493 17.0475 10.3494H23.0161L23.2634 0.935159H22.13L21.8954 9.28908H19.7454L19.9665 0.935159H18.8331L18.5985 9.28908H17.4388V8.40564H17.8079L18.0433 0.051712H20.8049L20.583 8.40564H21.1055L21.3402 0.051712H24.1018L23.8075 11.2328H17.0475C16.3217 11.2328 15.6553 11.0011 15.1536 10.4538L15.055 10.3399L15.0486 10.3321C14.5379 9.6883 14.3797 8.8148 14.4091 7.88799V7.88454L14.6867 0.051712H17.4515Z" fill="white"/>
<path d="M8.87185 0.935159V10.3494H14.0976V9.28908H10.1492V5.98133H13.824V4.92189H10.2662V1.99547H14.0976V0.935159H8.87185ZM14.912 2.87892H11.0807V4.03844H14.6384V6.86478H10.9637V8.40564H14.912V11.2328H8.05737V0.051712H14.912V2.87892Z" fill="white"/>
<path d="M1.52556 0L1.5534 0.0517645H2.91749L5.4874 4.94178L5.62977 0.0517645H8.40807L8.06765 11.2329H6.93421L6.93342 11.2614L6.91831 11.2329H5.69102L2.94613 6.13927L2.77353 11.2329H0L0.340427 0.0517645H1.52397L1.52556 0ZM1.12866 0.935212L0.841523 10.3494H1.98848L2.23584 3.06963L6.15871 10.3494H7.27941L7.56575 0.935212H6.4188L6.21041 8.102L2.44424 0.935212H1.12866Z" fill="white"/>
</g>
<defs>
<linearGradient id="paint0_linear_200_5574" x1="0.125187" y1="-25.4302" x2="0.125187" y2="31.1104" gradientUnits="userSpaceOnUse">
<stop stop-color="#FF0000"/>
<stop offset="0.475962" stop-color="#FC0C00"/>
<stop offset="0.625" stop-color="#FF8800"/>
<stop offset="1" stop-color="#FF8800"/>
</linearGradient>
<linearGradient id="paint1_linear_200_5574" x1="0.124765" y1="-25.4302" x2="0.124765" y2="31.1104" gradientUnits="userSpaceOnUse">
<stop stop-color="#FF0000"/>
<stop offset="0.475962" stop-color="#FC0C00"/>
<stop offset="0.625" stop-color="#FF8800"/>
<stop offset="1" stop-color="#FF8800"/>
</linearGradient>
<linearGradient id="paint2_linear_200_5574" x1="0.125097" y1="-25.4302" x2="0.125097" y2="31.1105" gradientUnits="userSpaceOnUse">
<stop stop-color="#FF0000"/>
<stop offset="0.475962" stop-color="#FC0C00"/>
<stop offset="0.625" stop-color="#FF8800"/>
<stop offset="1" stop-color="#FF8800"/>
</linearGradient>
<linearGradient id="paint3_linear_200_5574" x1="0.124689" y1="-25.4302" x2="0.124689" y2="31.1104" gradientUnits="userSpaceOnUse">
<stop stop-color="#FF0000"/>
<stop offset="0.475962" stop-color="#FC0C00"/>
<stop offset="0.625" stop-color="#FF8800"/>
<stop offset="1" stop-color="#FF8800"/>
</linearGradient>
<linearGradient id="paint4_linear_200_5574" x1="0.125039" y1="-25.4302" x2="0.125039" y2="31.1104" gradientUnits="userSpaceOnUse">
<stop stop-color="#FF0000"/>
<stop offset="0.475962" stop-color="#FC0C00"/>
<stop offset="0.625" stop-color="#FF8800"/>
<stop offset="1" stop-color="#FF8800"/>
</linearGradient>
<linearGradient id="paint5_linear_200_5574" x1="0.125113" y1="-25.4302" x2="0.125113" y2="31.1104" gradientUnits="userSpaceOnUse">
<stop stop-color="#FF0000"/>
<stop offset="0.475962" stop-color="#FC0C00"/>
<stop offset="0.625" stop-color="#FF8800"/>
<stop offset="1" stop-color="#FF8800"/>
</linearGradient>
<linearGradient id="paint6_linear_200_5574" x1="0.125687" y1="-25.4302" x2="0.125687" y2="31.1104" gradientUnits="userSpaceOnUse">
<stop stop-color="#FF0000"/>
<stop offset="0.475962" stop-color="#FC0C00"/>
<stop offset="0.625" stop-color="#FF8800"/>
<stop offset="1" stop-color="#FF8800"/>
</linearGradient>
<linearGradient id="paint7_linear_200_5574" x1="0.125064" y1="-25.4302" x2="0.125064" y2="31.1104" gradientUnits="userSpaceOnUse">
<stop stop-color="#FF0000"/>
<stop offset="0.475962" stop-color="#FC0C00"/>
<stop offset="0.625" stop-color="#FF8800"/>
<stop offset="1" stop-color="#FF8800"/>
</linearGradient>
<linearGradient id="paint8_linear_200_5574" x1="0.125051" y1="-25.4309" x2="0.125051" y2="31.1098" gradientUnits="userSpaceOnUse">
<stop stop-color="#FF0000"/>
<stop offset="0.475962" stop-color="#FC0C00"/>
<stop offset="0.625" stop-color="#FF8800"/>
<stop offset="1" stop-color="#FF8800"/>
</linearGradient>
</defs>
</svg>
