<svg width="26" height="34" viewBox="0 0 26 34" fill="none" xmlns="http://www.w3.org/2000/svg">
<path d="M18.821 -5.31271e-05C18.821 -5.31271e-05 16.6324 5.14634 15.1702 9.50283C16.5829 9.7783 17.7914 10.5303 18.5615 11.7648C19.5318 13.321 19.6127 15.3317 18.9761 17.3151C21.9162 18.0725 25.0511 18.6299 25.069 18.6331L18.5582 18.3889C17.8254 19.9992 16.6282 21.5415 15.0489 22.7579C13.1228 24.2411 10.9875 24.9662 9.0898 24.934C8.94244 24.9315 8.79666 24.9217 8.65228 24.91C6.50889 29.0565 4.08418 33.8542 4.06492 33.8923C5.26665 30.8427 6.50542 27.8115 7.71046 24.7642C6.39787 24.4544 5.27891 23.7198 4.55129 22.5535C3.57953 20.9957 3.49876 18.9812 4.13756 16.9954C4.1926 16.8244 4.25454 16.6536 4.32019 16.4832C3.06511 16.2218 1.60368 15.911 -3.78498e-06 15.5349L4.73475 15.5456C5.47694 14.0746 6.60896 12.6793 8.06302 11.5594C9.98911 10.0761 12.1244 9.35113 14.0221 9.38325C14.0564 9.38383 14.0907 9.38572 14.1249 9.3868C16.2255 5.2337 18.821 -5.31271e-05 18.821 -5.31271e-05ZM14.1266 18.2232C14.1266 18.2232 12.6008 17.9289 11.8086 19.03C11.4942 19.4671 10.2122 21.8938 8.77886 24.6637C8.88548 24.6706 8.99297 24.677 9.10142 24.6789C10.9444 24.7102 13.0307 24.0054 14.9196 22.5509C16.4361 21.383 17.5886 19.9119 18.3057 18.3795L14.1266 18.2232ZM4.55163 16.5314C4.48115 16.7118 4.41511 16.892 4.35692 17.0728C3.73645 19.0013 3.82346 20.9268 4.74474 22.404C5.44168 23.5212 6.52245 24.2308 7.80491 24.5241C8.4721 22.8339 9.12904 21.1384 9.76152 19.4316C10 18.7912 10.2243 18.3716 9.97284 17.9704C9.70938 17.5502 8.94226 17.4707 8.73949 17.4149C8.18237 17.2574 6.68052 16.9724 4.55163 16.5314ZM15.0871 9.74711C14.1993 12.425 13.6119 14.7579 14.0167 15.336C14.4719 15.9839 16.5313 16.673 18.7509 17.2548C18.752 17.2512 18.7539 17.2479 18.755 17.2444C19.3754 15.316 19.2894 13.3905 18.3681 11.9133C17.6316 10.7327 16.4662 10.0072 15.0871 9.74711ZM13.9978 9.63798C12.158 9.61024 10.0767 10.3153 8.19235 11.7663C6.80533 12.8346 5.72248 14.1563 4.99897 15.5465L9.03813 15.5566C9.04812 15.5575 10.7804 15.7025 11.7105 14.0532C12.102 13.3593 12.983 11.642 13.9978 9.63798Z" fill="#FF6D00"/>
</svg>
