<svg width="195" height="55" viewBox="0 0 195 55" fill="none" xmlns="http://www.w3.org/2000/svg">
<rect x="0.25" y="0.25" width="194.5" height="54.5" rx="4.75" fill="white" stroke="#7549EA" stroke-width="0.5"/>
<line y1="36.75" x2="195" y2="36.75" stroke="#7549EA" stroke-width="0.5"/>
<path d="M195 52C195 55 194 55 191 55H5C2 55 0 55 0 52V40H195V52Z" fill="url(#paint0_linear_98_1110)"/>
<path d="M3.77734 36C4.20687 36 4.55566 36.3488 4.55566 36.7783C4.55543 37.2076 4.20673 37.5557 3.77734 37.5557C3.34814 37.5555 3.00023 37.2075 3 36.7783C3 36.3489 3.34799 36.0002 3.77734 36ZM6 36C6.42945 36.0001 6.77734 36.3489 6.77734 36.7783C6.77714 37.2076 6.42932 37.5556 6 37.5557C5.5706 37.5557 5.22189 37.2077 5.22168 36.7783C5.22168 36.3488 5.57047 36 6 36ZM8.22168 36C8.65121 36 9 36.3488 9 36.7783C8.99979 37.2077 8.65108 37.5557 8.22168 37.5557C7.79236 37.5556 7.44454 37.2076 7.44434 36.7783C7.44434 36.3488 7.79223 36.0001 8.22168 36Z" fill="#21008D"/>
<path d="M176.152 32.2248C176.42 31.9362 176.868 31.9237 177.152 32.1975C177.435 32.4712 177.447 32.9274 177.179 33.216L175.221 35.3205C174.952 35.6089 174.504 35.6207 174.221 35.3469C173.937 35.0731 173.925 34.617 174.194 34.3283L176.152 32.2248ZM179.109 32.2248C179.377 31.9363 179.825 31.924 180.109 32.1975C180.392 32.4713 180.404 32.9274 180.136 33.216L178.179 35.3205C177.91 35.6091 177.463 35.6206 177.179 35.3469C176.895 35.073 176.883 34.617 177.152 34.3283L179.109 32.2248ZM182.067 32.2248C182.335 31.9362 182.783 31.9237 183.067 32.1975C183.35 32.4712 183.362 32.9274 183.094 33.216L181.136 35.3205C180.867 35.6089 180.42 35.6207 180.136 35.3469C179.852 35.0731 179.84 34.617 180.109 34.3283L182.067 32.2248ZM185.024 32.2248C185.292 31.9363 185.74 31.9239 186.024 32.1975C186.307 32.4713 186.319 32.9274 186.051 33.216L184.094 35.3205C183.825 35.6091 183.378 35.6205 183.094 35.3469C182.81 35.073 182.798 34.617 183.067 34.3283L185.024 32.2248ZM187.982 32.2248C188.25 31.9363 188.698 31.9237 188.982 32.1975C189.265 32.4712 189.277 32.9274 189.009 33.216L187.051 35.3205C186.782 35.609 186.335 35.6207 186.051 35.3469C185.767 35.0731 185.755 34.617 186.024 34.3283L187.982 32.2248ZM190.939 32.2248C191.207 31.9363 191.655 31.9239 191.939 32.1975C192.222 32.4713 192.234 32.9274 191.966 33.216L190.008 35.3205C189.739 35.6088 189.292 35.6206 189.008 35.3469C188.725 35.073 188.713 34.6169 188.982 34.3283L190.939 32.2248Z" fill="#2A1995"/>
<defs>
<linearGradient id="paint0_linear_98_1110" x1="0" y1="47.5" x2="195" y2="47.5" gradientUnits="userSpaceOnUse">
<stop offset="0.759615" stop-color="#21008D"/>
<stop offset="1" stop-color="#8679B1"/>
</linearGradient>
</defs>
</svg>
