<svg width="30" height="23" viewBox="0 0 30 23" fill="none" xmlns="http://www.w3.org/2000/svg">
<path fill-rule="evenodd" clip-rule="evenodd" d="M19.4129 15.6102C19.3937 15.6033 19.3744 15.5964 19.3551 15.5895Z" fill="#FF6C00"/>
<path fill-rule="evenodd" clip-rule="evenodd" d="M2.78252 5.88832C2.45731 5.87812 1.83722 5.50866 1.47428 5.38579C1.00604 5.22727 1.02679 5.78784 0.872786 6.19797C0.76107 6.49548 -0.14741 8.49904 0.0206728 8.62944C0.111039 8.69957 0.270562 8.72994 0.427808 8.75987C0.534494 8.78018 0.640132 8.80029 0.722413 8.83249C0.835048 8.87655 0.962461 8.93373 1.09056 8.99122C1.2619 9.06812 1.43447 9.14558 1.57453 9.19289C1.4442 9.54559 1.32366 9.89489 1.20504 10.2386C1.01646 10.7851 0.832681 11.3177 0.622164 11.8274C0.566575 11.962 0.533492 12.106 0.501017 12.2474C0.450478 12.4675 0.401415 12.6811 0.271294 12.8426C0.286427 13.1556 0.451491 13.1874 0.657632 13.2272C0.741688 13.2435 0.832575 13.261 0.92291 13.2995C1.52515 13.5559 2.21005 13.8063 2.78252 14.0152C2.74453 14.6355 2.46147 15.1919 2.21691 15.6726C2.18752 15.7304 2.15869 15.7871 2.13091 15.8426C2.11406 15.9239 2.09996 16.0081 2.08585 16.0924C2.03703 16.3838 1.98806 16.6761 1.82515 16.8528C1.83216 17.2418 2.12596 17.3089 2.42689 17.3777C2.52996 17.4012 2.63387 17.425 2.72738 17.4619C3.2989 17.6877 3.92766 17.9359 4.48173 18.1269C4.59879 18.2022 4.70903 18.2282 4.80963 18.252C4.89091 18.2712 4.9659 18.289 5.0331 18.3299H5.28372C5.38015 18.3088 5.40888 18.1487 5.43877 17.9821C5.4518 17.9095 5.46505 17.8357 5.48422 17.7716C5.57927 17.5508 5.66563 17.3048 5.75708 17.0443C5.81348 16.8836 5.87184 16.7174 5.93534 16.5482C6.38951 15.3382 6.87993 14.0424 7.33882 12.8426C7.37292 12.7535 7.42594 12.5462 7.482 12.327C7.56213 12.0136 7.64849 11.676 7.6947 11.6244C7.79427 11.5682 7.88606 11.5851 7.97475 11.6014C8.082 11.6212 8.18472 11.6401 8.29118 11.5279C8.40785 11.4663 8.43861 11.3298 8.47577 11.1648C8.4932 11.0874 8.51204 11.0038 8.5418 10.9188C8.73603 10.5047 8.95402 9.94812 9.09818 9.49239C9.17604 9.35492 9.21683 9.21051 9.25596 9.072C9.30188 8.90945 9.3455 8.75502 9.44404 8.62944C9.37896 8.41737 9.17346 8.31859 8.99292 8.22335C9.08093 7.52998 9.43566 6.85892 9.64453 6.19289C9.78779 5.847 9.92892 5.47487 10.0699 5.10302C10.2116 4.72955 10.3532 4.35622 10.4966 4.01015C10.7429 3.41629 10.9012 2.77069 11.1532 2.15953C11.2375 1.95484 11.2628 1.64624 11.3989 1.47208C11.3357 0.785234 8.62379 0.364458 8.09569 0C7.50596 0.058989 7.18986 2.31023 6.92022 2.76113C6.87716 2.83315 6.83127 2.90988 6.79246 2.99492C6.21019 2.94317 4.87409 2.55308 4.43161 2.13198C4.06317 2.14492 3.98832 2.47094 3.91561 2.78768C3.66691 3.87101 3.07704 4.70455 2.78252 5.88832ZM13.4699 5.96087C13.1361 5.80309 12.7559 5.62342 12.3512 5.58883C12.1201 5.83076 11.8189 5.88492 11.6044 6.09645C11.5502 6.23649 11.5251 6.38303 11.5 6.52961C11.4754 6.67316 11.4509 6.81675 11.3989 6.95431C11.3346 7.1243 11.2562 7.31269 11.1776 7.50138C11.061 7.78147 10.9784 8.32894 10.7523 8.52792C10.8067 8.64716 10.802 8.67061 10.8475 8.73096C10.909 8.78466 10.9624 8.79132 11.0194 8.79844C11.0606 8.80358 11.1037 8.80896 11.1533 8.83249C11.3001 8.87803 11.514 8.92826 11.746 8.98273C12.2475 9.10047 12.8333 9.23801 13.0079 9.39086C13.335 9.35596 13.4082 9.04573 13.477 8.75363C13.5001 8.65576 13.5227 8.55992 13.5542 8.47716C13.6075 8.33738 13.6664 8.18788 13.7268 8.03471C13.864 7.68677 14.0087 7.31989 14.1106 7.00508C14.1873 6.88678 14.2143 6.76443 14.2407 6.6445C14.3437 6.17656 14.1469 6.25887 13.7547 6.09137C13.6643 6.05274 13.5691 6.00774 13.4699 5.96087ZM15.6803 6.50242C15.4219 6.3632 15.1166 6.1987 14.7572 6.19289C14.5959 6.53663 14.4748 6.89808 14.3515 7.26581C14.2229 7.64971 14.0918 8.04085 13.9101 8.4264C13.8799 8.55195 13.8111 8.71385 13.741 8.87882C13.6637 9.06053 13.5848 9.24603 13.5542 9.39086C13.5324 9.49411 13.5745 9.56797 13.6177 9.64378C13.6724 9.73984 13.7289 9.83902 13.6595 10.0051C13.577 10.6037 13.4383 11.2226 13.1031 11.5279C13.1833 11.7984 13.6792 11.9522 14.1368 12.0941C14.4355 12.1867 14.7178 12.2742 14.8575 12.3858C15.2459 12.371 15.3877 11.8244 15.5028 11.3808C15.5387 11.2426 15.572 11.1143 15.6093 11.0152L15.675 10.8411C15.9257 10.1765 16.1931 9.46763 16.4163 8.83249C16.495 8.70712 16.5181 8.59301 16.5417 8.47692C16.5583 8.39494 16.5751 8.31197 16.6118 8.22335C16.641 8.15279 16.6731 8.07983 16.7054 8.00608C16.8416 7.69586 16.99 7.35779 17.0178 7.00508C16.8278 6.90122 16.6127 6.837 16.3761 6.76638C16.2153 6.71837 16.0445 6.66739 15.865 6.59898C15.8063 6.57027 15.7447 6.53713 15.6803 6.50242ZM18.7821 7.90546C18.3436 7.69404 17.8404 7.4514 17.2684 7.36041C17.0593 7.85141 16.878 8.38812 16.6963 8.92615C16.5259 9.43045 16.3551 9.93601 16.1607 10.4061C16.0894 10.5785 16.0329 10.7819 15.9754 10.9891C15.8639 11.3907 15.7486 11.8061 15.5141 12.0355C15.5457 12.5375 16.2146 12.7371 16.8079 12.9141C17.1478 13.0155 17.4629 13.1095 17.6193 13.2487C17.967 13.1962 18.0194 12.8837 18.0691 12.5878C18.0839 12.4997 18.0985 12.4129 18.1205 12.335C18.5436 11.4265 18.9161 10.4034 19.2233 9.49239C19.3486 9.28487 19.6408 8.31213 19.5741 8.27411C19.5379 8.12472 19.4222 8.1049 19.2682 8.07851C19.1938 8.06576 19.1104 8.05148 19.0228 8.0203C18.9448 7.98394 18.8646 7.94526 18.7821 7.90546ZM20.9917 9.01685C20.6675 8.84763 20.285 8.64792 19.8699 8.62944C19.5861 9.14567 19.376 9.77723 19.17 10.3966C19.0399 10.7875 18.9115 11.1736 18.7672 11.5228C18.711 11.6586 18.6749 11.8114 18.6389 11.9635C18.5787 12.2184 18.5189 12.4713 18.3662 12.6396V12.9442C18.4209 13.0578 18.6057 13.0969 18.779 13.1336C18.8681 13.1524 18.954 13.1706 19.0178 13.198C19.1205 13.242 19.2289 13.2911 19.341 13.3418C19.7441 13.5243 20.1969 13.7291 20.6217 13.8071C20.9793 13.4102 21.1189 12.843 21.2641 12.2528C21.3151 12.0457 21.3667 11.8358 21.4287 11.6294C21.4745 11.5363 21.5235 11.4432 21.5732 11.349C21.8208 10.8791 22.0841 10.3795 22.0302 9.69543C22.0151 9.66938 22.0004 9.63879 21.9846 9.60602C21.9314 9.49513 21.8661 9.35924 21.7295 9.28934C21.6663 9.22748 21.581 9.21292 21.474 9.19465C21.4019 9.18234 21.3199 9.16835 21.2282 9.13706C21.1536 9.10139 21.0743 9.06001 20.9917 9.01685ZM24.4863 6.09645C24.9334 6.12861 25.2632 6.30282 25.5522 6.45549C25.6518 6.50811 25.7466 6.55818 25.8397 6.59898C26.1189 6.7015 26.3888 6.79065 26.6498 6.87687C27.1082 7.02827 27.5392 7.17066 27.9449 7.36041C27.9971 7.36469 28.0172 7.43417 28.0322 7.48625L28.0363 7.50018L28.0401 7.51269C27.9235 7.65802 27.871 7.84977 27.8164 8.04903C27.7721 8.21064 27.7264 8.3772 27.6442 8.52792C27.5797 8.72161 27.4934 8.92468 27.4043 9.13439C27.2312 9.54147 27.0475 9.97372 26.9925 10.4112C27.5948 10.693 28.2371 10.9509 28.7469 11.1218C28.8679 11.1778 28.9889 11.2062 29.0973 11.2317C29.3387 11.2885 29.5182 11.3307 29.4988 11.6294C29.4183 11.7796 29.3767 11.9543 29.3342 12.1329C29.2891 12.3227 29.2428 12.5168 29.1479 12.6904C29.103 12.8268 29.059 12.9652 29.0149 13.1043C28.8863 13.509 28.7554 13.921 28.5915 14.3198C28.55 14.4454 28.5025 14.553 28.4557 14.6591C28.3698 14.8535 28.2861 15.0431 28.2456 15.3299C28.6396 15.4744 30 15.7299 30 16.2437C29.6101 16.8752 29.6338 19.1943 28.7469 19.2386C28.6119 19.088 27.3569 18.6451 26.9925 18.6294C26.5693 19.8815 26.1981 21.2495 25.5891 22.3909C25.2255 22.3246 24.8608 22.1568 24.4811 21.9822C23.9984 21.7602 23.4917 21.5271 22.9325 21.4772C22.9358 21.7359 22.5345 22.9671 22.3811 23H18.5667C18.5376 22.9641 18.525 22.9244 18.4714 22.7462C18.7132 22.5117 18.8684 21.954 19.0118 21.4384C19.0806 21.1914 19.1467 20.9539 19.2183 20.7665C19.4494 20.2392 19.633 19.6581 19.8225 19.0586C19.9195 18.7514 20.0182 18.4389 20.1255 18.1269L20.1854 18.0157C20.4565 17.5137 20.7854 16.9047 20.7771 16.2437C20.6771 16.2161 20.5974 16.1604 20.5123 16.1008C20.4298 16.0431 20.3421 15.9817 20.2258 15.9391C19.9651 15.807 19.6645 15.6998 19.3551 15.5895C19.2123 15.5386 19.066 15.4865 18.9225 15.4315C18.7612 15.3524 18.5964 15.3131 18.4169 15.2704C18.2643 15.234 18.1009 15.195 17.9201 15.1269C17.3161 14.8598 16.6607 14.6143 16.0013 14.3673C15.4289 14.1529 14.8532 13.9373 14.3061 13.7056C13.9688 13.5627 13.5801 13.4485 13.1865 13.3328C12.4592 13.119 11.7153 12.9004 11.2485 12.4873V12.4365C11.3569 12.3475 11.3718 12.3462 11.4638 12.3386L11.4876 12.3365L11.5041 12.335C11.828 12.5394 12.1085 12.3809 12.3884 12.2228C12.619 12.0925 12.8493 11.9625 13.1031 12.0355C13.2534 12.103 13.4095 12.1762 13.5676 12.2504C14.0104 12.458 14.4691 12.6731 14.8625 12.7919C15.0688 12.8432 15.1814 12.8063 15.2824 12.7732C15.3899 12.7379 15.4842 12.7069 15.6645 12.7919C15.8464 12.8621 16.0599 12.9584 16.2857 13.0603C16.8104 13.297 17.4018 13.5639 17.8198 13.6041C17.856 13.5721 17.89 13.5386 17.9237 13.5055C18.0476 13.3836 18.1664 13.2668 18.3662 13.2487C18.5253 13.3737 18.7295 13.4256 18.9301 13.4765C19.0682 13.5116 19.2047 13.5463 19.3235 13.6041C19.4938 13.6675 19.674 13.7515 19.853 13.835C20.0857 13.9435 20.3166 14.0511 20.5215 14.1117C20.6707 14.1557 20.7922 14.0961 20.8874 14.0494C20.9207 14.0331 20.9507 14.0183 20.9776 14.0102C21.0267 13.9254 21.0881 13.7753 21.1562 13.6087C21.3012 13.2543 21.4767 12.8251 21.6292 12.7919C21.7693 12.8893 21.9005 12.9253 22.0302 12.9442C22.3241 12.4186 22.4829 11.8476 22.6486 11.2516C22.7069 11.042 22.7661 10.8291 22.8322 10.6142C23.2081 9.7359 23.5356 8.79133 23.8653 7.84018C24.0676 7.25682 24.2707 6.67098 24.4863 6.09645ZM7.21904 23C7.9414 20.6502 9.56778 18.5768 9.64453 16.0457C9.53891 15.9961 9.49211 15.8999 9.43288 15.7783C9.39758 15.7058 9.35788 15.6243 9.29868 15.5381C8.92836 14.9057 8.66571 14.2151 8.44155 13.2995V12.2386C8.5748 11.8594 8.76847 11.4063 8.95404 10.9722C9.03694 10.7783 9.11929 10.5856 9.19342 10.4061C9.23819 10.2976 9.28426 10.1311 9.33508 9.94737C9.46029 9.49464 9.61458 8.93678 9.85004 8.88325C9.98706 8.9637 10.1587 8.97348 10.329 8.98317C10.4577 8.9905 10.5856 8.99779 10.6971 9.03553C10.9436 9.11893 11.2135 9.2003 11.4824 9.28136C11.8257 9.38484 12.1673 9.48783 12.4565 9.59391C12.6028 9.63906 12.7373 9.65709 12.8552 9.6729C13.1661 9.7146 13.3618 9.74084 13.3537 10.2081C13.2654 10.3439 13.2193 10.5099 13.1735 10.6751C13.13 10.8316 13.0868 10.9875 13.0079 11.1168C12.8783 11.513 12.4214 11.9437 12.0004 12.0355C11.7748 12.1434 11.5325 12.0708 11.2931 11.9992C11.2125 11.9751 11.1322 11.951 11.053 11.934C11.0287 12.0404 10.9965 12.131 10.9647 12.2203C10.9103 12.3733 10.8572 12.5226 10.8475 12.7411C12.0374 13.2797 13.318 13.7417 14.5987 14.2037C15.6894 14.5972 16.7801 14.9906 17.8148 15.4315C18.089 15.5483 18.3664 15.642 18.6377 15.7336C18.8356 15.8004 19.0303 15.8662 19.2183 15.9391C19.2608 15.9556 19.331 15.9735 19.4075 15.9931C19.5714 16.035 19.7641 16.0843 19.7746 16.1421V16.4467C19.7538 16.488 19.7401 16.5364 19.7261 16.5863C19.6978 16.6866 19.6679 16.7927 19.5741 16.8579C19.3864 17.2538 18.6374 17.7824 18.2208 18.0203C18.1361 18.0858 17.9724 18.1618 17.7979 18.2428C17.5279 18.3681 17.2322 18.5054 17.1632 18.6345C17.0438 18.8074 16.9844 19.0159 16.9262 19.2202C16.8716 19.4119 16.818 19.5999 16.7171 19.7513C16.6885 20.0382 15.6616 22.9629 15.4138 23H7.21904Z" fill="#FF6C00"/>
</svg>
