<svg width="31" height="31" viewBox="0 0 31 31" fill="none" xmlns="http://www.w3.org/2000/svg">
<path d="M25.429 16.4058H10.0959V13.8818H25.429L23.4729 11.9258L25.2397 10.0959L30.2876 15.1438L25.2397 20.1918L23.4729 18.3619L25.429 16.4058ZM18.9298 11.3579V6.30992H6.30992V23.9777H18.9298V18.9298H21.4537V23.9777C21.4537 24.6718 21.2066 25.266 20.7123 25.7603C20.2181 26.2546 19.6239 26.5017 18.9298 26.5017H6.30992C5.61583 26.5017 5.02164 26.2546 4.52737 25.7603C4.03309 25.266 3.78595 24.6718 3.78595 23.9777V6.30992C3.78595 5.61583 4.03309 5.02164 4.52737 4.52737C5.02164 4.03309 5.61583 3.78595 6.30992 3.78595H18.9298C19.6239 3.78595 20.2181 4.03309 20.7123 4.52737C21.2066 5.02164 21.4537 5.61583 21.4537 6.30992V11.3579H18.9298Z" fill="#CCCCCC"/>
</svg>
