<svg width="25" height="25" viewBox="0 0 25 25" fill="none" xmlns="http://www.w3.org/2000/svg">
<path d="M15.9375 17.3958L17.3958 15.9375L13.5417 12.0833V7.29165H11.4583V12.9166L15.9375 17.3958ZM12.5 22.9166C11.059 22.9166 9.70486 22.6432 8.4375 22.0963C7.17013 21.5495 6.0677 20.8073 5.1302 19.8698C4.1927 18.9323 3.45052 17.8298 2.90364 16.5625C2.35677 15.2951 2.08333 13.941 2.08333 12.5C2.08333 11.059 2.35677 9.70484 2.90364 8.43748C3.45052 7.17012 4.1927 6.06769 5.1302 5.13019C6.0677 4.19269 7.17013 3.4505 8.4375 2.90363C9.70486 2.35675 11.059 2.08331 12.5 2.08331C13.941 2.08331 15.2951 2.35675 16.5625 2.90363C17.8299 3.4505 18.9323 4.19269 19.8698 5.13019C20.8073 6.06769 21.5495 7.17012 22.0964 8.43748C22.6432 9.70484 22.9167 11.059 22.9167 12.5C22.9167 13.941 22.6432 15.2951 22.0964 16.5625C21.5495 17.8298 20.8073 18.9323 19.8698 19.8698C18.9323 20.8073 17.8299 21.5495 16.5625 22.0963C15.2951 22.6432 13.941 22.9166 12.5 22.9166ZM12.5 20.8333C14.809 20.8333 16.7752 20.0217 18.3984 18.3984C20.0217 16.7752 20.8333 14.809 20.8333 12.5C20.8333 10.191 20.0217 8.22481 18.3984 6.60154C16.7752 4.97828 14.809 4.16665 12.5 4.16665C10.191 4.16665 8.22482 4.97828 6.60156 6.60154C4.97829 8.22481 4.16666 10.191 4.16666 12.5C4.16666 14.809 4.97829 16.7752 6.60156 18.3984C8.22482 20.0217 10.191 20.8333 12.5 20.8333Z" fill="#CCCCCC"/>
</svg>
