<svg width="88" height="31" viewBox="0 0 88 31" fill="none" xmlns="http://www.w3.org/2000/svg">
<path fill-rule="evenodd" clip-rule="evenodd" d="M3.59123 7.71175C3.6925 7.25908 3.94965 6.81167 4.09694 6.38878C4.11826 6.31565 4.13964 6.12286 4.16096 6.04973C4.41484 5.42575 4.68863 4.69379 4.92913 4.05532C5.10966 3.57606 5.06587 2.81492 5.69731 2.79218C5.88532 2.97567 6.13216 2.94157 6.40147 3.05811C7.1064 3.36319 7.90716 3.84896 8.71241 3.92235C8.81592 3.68974 8.95886 3.50459 9.02608 3.32403C9.31632 2.54408 9.51995 1.79145 9.79426 1.00386C9.94853 0.654501 9.92376 0.0464699 10.3768 0C10.8121 0.308071 11.3666 0.32396 11.7851 0.531845C12.368 0.761136 12.986 1.03563 13.4495 1.26313C13.9176 1.44236 14.5452 1.36957 14.5954 1.92794C14.4658 2.09799 14.4963 2.29704 14.4033 2.52626C14.1585 3.12977 13.8775 3.8576 13.5775 4.4542C13.5213 4.73435 13.5565 4.97155 13.4431 5.25197C13.0774 6.1565 12.7216 7.20257 12.3548 8.11063C12.3121 8.25024 12.2695 8.50951 12.2268 8.64912C11.9757 9.33201 11.6161 10.0148 11.5227 10.7699C11.7515 10.8946 12.0136 11.0172 12.0988 11.3017C11.8657 11.6063 11.8732 12.0406 11.6571 12.4319C11.473 13.0287 11.1946 13.7577 10.9465 14.3C10.8275 14.6489 10.8453 14.9792 10.6264 15.0977C10.3781 15.3661 10.1456 15.0616 9.86467 15.2241C9.76436 15.3389 9.51598 16.5359 9.41017 16.8196C8.82411 18.3909 8.19779 20.0879 7.61775 21.6727C7.40516 22.2534 7.23789 22.8073 7.04162 23.2749C6.96096 23.5515 6.96237 23.9664 6.78556 24.0061C6.67891 24.0061 6.57214 24.0061 6.46549 24.0061C6.27344 23.886 6.0316 23.9184 5.76133 23.7402C5.05371 23.4901 4.25071 23.165 3.52081 22.8693C3.05273 22.6797 2.38058 22.7555 2.36854 22.0716C2.63677 21.7732 2.66314 21.2233 2.75904 20.7486C3.0898 20.0703 3.53688 19.2653 3.59123 18.3553C2.86011 18.0817 1.98542 17.7538 1.21628 17.4179C0.81798 17.244 0.411295 17.3965 0.384089 16.8196C0.657048 16.472 0.65071 15.9406 0.832192 15.49C1.27018 14.4025 1.6174 13.236 2.04847 12.0396C1.73589 11.9313 1.29649 11.7025 0.960221 11.5676C0.700257 11.4633 0.257724 11.4559 0.0640149 11.3017C-0.0115226 11.2416 0.0230453 11.1615 0 11.0358C0.288515 10.6604 0.317897 10.1166 0.512118 9.63968C0.699297 9.18004 0.962462 8.63563 1.15227 8.11728C1.35442 7.68881 1.23286 7.12047 1.92044 7.05359C2.1911 7.35308 3.1759 7.69838 3.59123 7.71175ZM15.8116 7.31951C16.4821 7.37828 17.0997 7.75675 17.6041 7.97767C17.947 8.12785 18.2977 8.00406 18.3146 8.3832C18.2081 8.6347 18.2244 8.91212 18.0586 9.17432C17.8711 9.76812 17.5704 10.5033 17.348 11.1023C17.1876 11.5341 17.208 12.2379 16.6502 12.2989C16.3241 12.0061 14.8746 11.7562 14.2817 11.5676C14.1309 11.4942 14.0265 11.5558 13.8912 11.4347C13.833 11.3556 13.839 11.3249 13.7696 11.1687C13.9712 10.9868 13.9237 10.8317 14.0192 10.5704C14.186 10.1144 14.4281 9.5617 14.5954 9.10784C14.7295 8.74373 14.7207 8.34737 14.8578 7.98432C15.1318 7.70729 15.5164 7.63636 15.8116 7.31951ZM31.3096 7.98432C32.0775 8.04096 32.5743 8.43399 33.038 8.64248C34.0207 9.01251 34.9134 9.24964 35.7266 9.63968C35.8055 9.64633 35.8269 9.77264 35.8482 9.83913C35.5786 10.1838 35.5771 10.728 35.3425 11.1687C35.1006 11.9148 34.6167 12.7671 34.5103 13.6352C35.2795 14.0043 36.0998 14.3421 36.7509 14.5659C37.2497 14.8023 37.747 14.6638 37.7111 15.2307C37.4992 15.6363 37.4984 16.179 37.263 16.6201C37.0389 17.3193 36.8338 18.0524 36.5524 18.7542C36.4024 19.2203 36.1905 19.4964 36.1107 20.0771C36.6779 20.2903 37.2737 20.5201 37.7111 20.7419C37.9821 20.7486 38.1955 20.8749 38.3512 20.8816C38.3512 21.0521 38.3512 21.163 38.3512 21.2738C38.1198 21.6582 38.1432 22.2351 37.9031 22.7364C37.8087 23.1541 37.6048 23.7061 37.391 24.1325C37.2879 24.5711 37.3719 25.1644 36.7509 25.1961C36.5785 24.999 34.9757 24.4189 34.5103 24.3984C33.9699 26.0382 33.4957 27.8298 32.7179 29.3246C31.6634 29.1274 30.6012 28.2447 29.3251 28.1279C29.3294 28.4668 28.8169 30.0793 28.621 30.1223C27.0357 30.1223 25.3923 30.1223 23.7495 30.1223C23.7124 30.0753 23.6963 30.0234 23.6278 29.7899C24.0846 29.3357 24.2994 27.955 24.5817 27.1972C25.0282 26.1527 25.3358 24.9468 25.7403 23.7402C26.0976 23.0565 26.5839 22.2045 26.5725 21.2738C26.3208 21.2028 26.1702 20.9884 25.8684 20.8749C25.3811 20.6217 24.785 20.4386 24.204 20.2101C23.8226 20.0185 23.4262 20.0053 22.9237 19.8112C21.4826 19.1575 19.8119 18.6029 18.3082 17.9498C17.0814 17.4169 15.3221 17.188 14.4033 16.3542C14.4033 16.3321 14.4033 16.3099 14.4033 16.2877C14.4246 16.2877 14.446 16.2877 14.4097 16.2877C14.5663 16.1558 14.5637 16.171 14.7298 16.1548C15.484 16.6428 16.0541 15.5507 16.7719 15.7625C17.5015 16.0985 18.337 16.542 19.0188 16.7531C19.5632 16.892 19.5967 16.5374 20.043 16.7531C20.8153 17.0589 22.0321 17.7415 22.7956 17.8168C23.012 17.6205 23.169 17.3815 23.4934 17.3514C23.8367 17.6278 24.3439 17.6312 24.7161 17.8168C25.2162 18.0079 25.783 18.3413 26.246 18.4816C26.5033 18.5595 26.6961 18.3899 26.8286 18.3486C27.0248 18.0013 27.3742 16.8171 27.6608 16.7531C27.8396 16.8807 28.0072 16.9278 28.1729 16.9525C28.6803 16.0222 28.8722 14.983 29.1971 13.9011C29.9716 12.0453 30.5851 9.96358 31.3096 7.98432ZM18.8843 8.11063C19.4577 8.12014 19.9234 8.454 20.2991 8.64248C20.8657 8.86386 21.3638 8.94583 21.7714 9.17432C21.7274 9.74698 21.4476 10.2881 21.2529 10.7699C21.1396 11.0503 21.1747 11.2875 21.0032 11.5676C20.6931 12.4726 20.3162 13.4917 19.9726 14.4263C19.7718 14.9724 19.6632 16.1959 19.0124 16.2213C18.5608 15.8512 16.9411 15.6832 16.7719 15.0977C17.2 14.6979 17.3771 13.8873 17.4824 13.1033C17.6411 12.7142 17.2848 12.6054 17.348 12.2989C17.4226 11.937 17.7215 11.3813 17.8025 11.0358C18.2568 10.047 18.4633 9.03092 18.8843 8.11063ZM22.0915 9.63968C22.9595 9.78129 23.7034 10.2033 24.332 10.5039C24.6756 10.6292 24.9675 10.5461 25.0362 10.8363C25.1213 10.8861 24.7482 12.1601 24.5881 12.4319C24.1957 13.625 23.72 14.9649 23.1797 16.1548C23.0571 16.5992 23.1159 17.2621 22.5396 17.3514C21.991 16.8508 19.9145 16.7966 19.851 15.7625C20.305 15.3071 20.4092 14.2919 20.6768 13.6285C21.19 12.356 21.5741 10.8855 22.0915 9.63968ZM25.4138 11.3017C26.0794 11.3321 26.6795 11.7366 27.1486 11.9665C27.4395 12.0683 27.6538 12.0303 27.7888 12.1659C28.0148 12.2845 28.0879 12.5482 28.1729 12.6978C28.2555 13.7734 27.7542 14.5008 27.4047 15.2307C27.0998 16.2713 26.9909 17.3806 26.3741 18.0827C25.6805 17.9522 24.9289 17.5501 24.3256 17.285C24.0858 17.1795 23.5992 17.1778 23.4934 16.9525C23.4934 16.8196 23.4934 16.6268 23.4934 16.5537C23.805 16.2018 23.8137 15.5669 24.0055 15.0911C24.482 13.909 24.8226 12.4045 25.4138 11.3017ZM9.28214 30.1223C9.34058 29.5319 9.81922 28.6219 9.9927 27.995C10.093 27.8554 10.1356 27.5961 10.1207 27.4565C10.4667 26.7476 10.8072 25.9098 11.0746 25.1961C11.3018 24.5896 11.3474 24.0604 11.5291 23.4676C11.8725 22.7593 12.3258 21.9974 12.3548 21.0145C12.1396 20.9108 12.1156 20.652 11.9131 20.3497C11.4402 19.5216 11.1048 18.617 10.8185 17.4179C10.8185 16.9748 10.8185 16.5315 10.8185 16.0285C11.0653 15.3081 11.4714 14.3916 11.7787 13.6285C11.9768 13.1364 12.1944 11.7327 12.6173 11.6341C12.9246 11.8191 13.3683 11.7187 13.6992 11.8335C14.4158 12.0822 15.2874 12.3171 15.9461 12.5648C16.6255 12.7799 17.1061 12.5252 17.0919 13.3692C16.8722 13.7156 16.8574 14.2114 16.6502 14.5592C16.4847 15.0783 15.9013 15.6423 15.3635 15.7625C14.9784 15.9514 14.555 15.7179 14.1537 15.6296C14.0695 16.0076 13.9107 16.2333 13.8912 16.6866C16.705 17.9928 19.9163 18.9549 22.7892 20.2101C23.3948 20.4747 24.0123 20.6485 24.5817 20.8749C24.7523 20.9427 25.2725 21.0297 25.2922 21.1408C25.2922 21.214 25.2922 21.4067 25.2922 21.5397C25.2119 21.7025 25.2154 21.9504 25.0362 22.0782C24.7964 22.5967 23.8398 23.2891 23.3078 23.6006C23.0324 23.8192 22.1022 24.1265 21.9571 24.405C21.6617 24.8438 21.6538 25.458 21.3873 25.8676C21.3638 26.11 21.1421 26.2767 21.0032 26.3994C20.8933 26.8358 20.8995 27.1966 20.6832 27.5894C20.6378 27.8443 20.455 28.1904 20.2991 28.3939C20.2531 28.731 19.9337 30.09 19.7229 30.1223C16.2814 30.1223 12.7813 30.1223 9.28214 30.1223ZM81.7596 16.9526C83.4947 16.9471 85.37 16.8418 86.9384 16.9592C86.8104 17.4622 86.6247 17.9055 86.4967 18.2888C86.1264 18.5024 85.3655 18.3553 84.7683 18.3553C83.6524 18.3553 82.4785 18.3553 81.2475 18.3553C81.143 18.6952 80.9704 18.9322 80.8634 19.2861C81.3324 19.4937 82.0636 19.3525 82.5278 19.3525C83.7589 19.3525 84.9327 19.3525 86.1062 19.3525C86.1417 19.5136 86.1513 19.5235 86.1126 19.6185C85.9612 19.9491 85.7264 21.2958 85.4725 21.4068C85.1034 21.4068 84.6765 21.4068 84.1922 21.4068C84.0775 21.5194 83.5159 21.4134 83.0399 21.4134C82.1374 21.4134 81.1769 21.4134 80.1592 21.4134C80.1521 21.5976 80.0588 21.7755 79.9032 21.8123C80.0008 21.9963 79.9655 21.9324 79.9672 21.9453C80.2216 22.2447 80.961 22.0782 81.3691 22.0782C82.6706 22.0782 83.9725 22.0782 85.274 22.0782C85.2698 22.9069 84.8576 23.601 84.5763 24.1391C84.1179 25.5782 83.8174 27.0018 83.2319 28.2609C83.1501 28.6691 82.8764 30.0626 82.5918 30.1224C82.2014 30.1224 81.7531 30.1224 81.2475 30.1224C81.2475 30.1224 79.2933 30.3471 78.8725 30.1889C78.589 30.1824 77.491 30.1837 76.504 30.1224C76.5239 29.6821 76.797 29.234 76.8945 28.7928C77.066 28.5726 77.0303 28.3349 77.0865 27.995C77.3475 27.5545 77.595 26.9718 77.7267 26.3995C78.0465 25.7492 78.1404 25.0987 78.3668 24.3386C79.3545 22.1054 80.1283 19.6163 80.9274 17.2252C81.3511 16.2886 81.622 15.2975 81.9516 14.3C82.2121 13.8686 82.0896 13.3074 82.7198 13.2363C82.7198 13.3405 82.7198 13.3848 82.7198 13.3693C82.953 13.6821 82.6833 14.0977 82.5918 14.4263C82.6921 14.4263 82.7347 14.4263 82.7198 14.4263C83.0155 14.6011 83.7565 14.433 84.0641 14.433C85.3166 14.433 86.5117 14.433 87.649 14.433C87.7421 14.5941 87.7517 14.6039 87.713 14.6989C87.6138 14.9587 87.6081 15.5739 87.3289 15.6296C85.9357 15.6296 84.4843 15.6296 82.9759 15.6296C82.8746 15.8122 82.4051 15.7637 82.0797 15.7559C82.043 16.1821 81.8421 16.4389 81.7596 16.9526ZM41.1038 25.6682C41.091 25.9894 40.991 26.2466 41.0398 26.2665C41.2768 26.6228 42.5339 26.4703 43.0242 26.3995C43.0941 26.3975 43.0342 26.4357 43.1523 26.333C43.4951 25.7863 43.6353 25.1734 43.9204 24.4051C44.0715 24.0897 44.277 23.7952 44.3045 23.2682C44.1775 23.1431 44.1658 23.0164 43.9845 22.876C43.7391 22.7527 42.1317 22.8626 41.6799 22.8694C41.3643 22.3388 41.1725 21.7653 40.9117 21.1409C40.8271 20.9382 40.5836 20.6197 40.47 20.3497C40.4312 20.0472 41.1599 18.5481 41.2958 18.1559C41.5859 17.5061 41.7952 16.7578 42.0064 16.0285C42.1587 15.8525 42.119 15.6102 42.2561 15.3637C42.4037 15.2224 42.7457 15.1651 42.9602 14.9648C43.2096 14.8613 43.4789 14.5895 43.6708 14.4263C43.9249 14.2979 44.1081 14.289 44.3045 14.1604C44.4792 14.0461 44.6794 13.7679 44.8806 13.6352C46.8222 13.6352 48.7644 13.6352 50.6484 13.6352C50.7415 13.7963 50.7511 13.8061 50.77 13.9011C50.6155 14.1641 50.6225 14.4294 50.514 14.6922C50.2636 15.298 49.9942 16.0179 49.7458 16.5603C49.6199 16.9254 49.6477 17.3481 49.3617 17.4844C49.112 17.6707 47.4537 17.5576 46.9931 17.4911C46.9561 17.4441 46.9399 17.3921 46.8715 17.2185C47.0295 17.0998 47.0468 16.975 47.0572 16.6933C46.5511 16.5689 45.6331 16.6819 45.0087 16.6867C44.9388 16.7485 44.9988 16.7103 44.8806 16.6933C44.5608 17.4923 44.2681 18.3431 43.9845 19.0201C43.9104 19.2723 43.877 19.6477 43.9845 19.7514C44.0364 20.0241 44.106 20.1413 44.3045 20.1503C44.5192 20.3715 45.7706 20.2835 46.1609 20.2168C46.529 20.9734 47.3861 22.3261 47.5053 23.1353C46.9292 24.6863 46.3529 26.2379 45.7769 27.7291C45.4958 28.22 44.8058 28.3743 44.3685 28.6532C43.9372 28.9282 43.4328 29.391 42.9602 29.5241C42.644 29.7129 42.1501 29.6503 41.7439 29.5905C40.7926 29.6504 39.4004 29.8226 38.6712 29.4576C38.5256 29.2044 37.6904 27.5334 37.775 27.1308C37.829 26.972 38.0164 26.6548 38.0951 26.3995C38.1824 26.2424 38.1706 25.8303 38.3512 25.6682C39.2686 25.6682 40.1863 25.6682 41.1038 25.6682ZM55.8976 29.5241C55.1471 29.6215 53.5544 29.7805 52.5624 29.5241C52.5624 29.4731 52.5624 29.3622 52.5624 29.1917C52.3968 29.0053 52.4984 27.6885 52.4408 27.1972C52.4557 25.6617 52.4131 24.0659 52.3128 22.4705C52.3491 22.4705 52.3277 22.4705 52.3064 22.4705C52.3064 22.5148 52.3064 22.5591 52.3064 22.6034C51.9306 23.0144 51.8966 23.6965 51.6086 24.2056C51.1981 25.4214 50.7349 26.6981 50.2003 27.7956C50.0774 28.2932 49.9317 29.263 49.6177 29.4576C49.3152 29.7844 46.9712 29.6861 46.481 29.5241C46.481 29.4953 46.481 29.4066 46.481 29.2581C46.6541 29.1183 46.6227 28.8674 46.7371 28.5268C46.9754 28.0016 47.2657 27.3136 47.5053 26.6654C47.6412 26.3914 47.6256 26.1284 47.7037 25.7347C48.8605 23.0913 49.7807 20.1787 50.898 17.4844C51.0315 17.1625 51.0197 16.8854 51.1541 16.5537C51.3899 15.9715 51.6817 15.2725 51.8647 14.6922C52.0321 14.4275 52.076 13.8167 52.3064 13.6352C53.3305 13.6352 54.355 13.6352 55.3791 13.6352C55.4145 13.7963 55.4242 13.8061 55.3855 13.9011C55.058 14.4511 54.9325 15.4509 54.6749 16.0285C54.3917 16.7892 54.0609 17.5838 53.7787 18.2224C53.6435 18.6168 53.6578 18.8783 53.5226 19.1531C53.3258 19.7002 53.0337 20.2165 52.9465 20.7486C52.9892 20.7486 53.0318 20.7486 53.0169 20.7486C53.4292 20.1863 53.9624 19.6591 54.3548 19.0201C54.9303 18.2306 55.4448 17.4039 56.0192 16.5537C56.2164 16.2619 56.5228 15.981 56.7234 15.6296C56.9838 15.3111 57.7867 13.8907 58.1317 13.7615C58.2878 13.6434 58.7027 13.6952 58.9639 13.6352C59.6587 13.6948 60.6976 13.549 61.2108 13.7615C60.8765 14.6142 60.1223 15.2268 59.5464 15.8955C58.7173 17.2019 57.7938 18.3577 56.9154 19.552C56.612 20.0451 55.9211 20.6103 55.6415 21.0145C55.53 21.4281 55.7582 22.8788 55.7632 23.4012C55.7696 25.4619 55.8912 27.5232 55.8976 29.5241ZM62.6127 13.6352C63.6368 13.6352 64.6613 13.6352 65.6278 13.6352C65.7225 13.8019 65.7386 13.8539 65.6918 14.0274C65.5467 14.2603 65.561 14.5681 65.3718 14.8319C65.1369 15.6108 64.9104 16.3975 64.5396 17.0922C63.4507 19.914 62.5406 22.8915 61.3388 25.6017C60.9952 26.6332 60.6866 27.6538 60.2506 28.5268C60.1571 28.9593 60.2066 29.4834 59.7961 29.5241C59.6396 29.7017 59.2253 29.6502 58.9639 29.5905C58.2549 29.6506 57.3916 29.7105 56.7298 29.5241C56.7298 29.4953 56.7298 29.4066 56.7298 29.2581C57.0492 29.0175 57.0684 28.5246 57.1779 28.1213C57.5501 27.3624 57.8863 26.4866 58.1381 25.6682C58.3318 25.3944 58.3158 25.131 58.4518 24.7375C59.5282 22.155 60.4558 19.3259 61.4669 16.6867C61.9365 15.6691 62.1795 14.6448 62.6127 13.6352ZM69.3983 26.7984C69.392 27.6137 68.93 28.2743 68.6941 28.7928C68.6064 29.0677 68.6188 29.4837 68.4381 29.5241C68.0327 29.5241 67.6272 29.5241 67.1642 29.5241C67.0193 29.7273 66.9044 29.5364 66.6457 29.5241C65.7551 29.7472 63.4619 29.5973 62.1646 29.5241C62.1433 29.5174 62.1219 29.3911 62.043 29.3246C62.2617 29.1741 62.2426 28.9333 62.2991 28.6532C62.721 27.7587 62.9993 26.7992 63.3233 25.8011C64.4533 23.2243 65.3649 20.3776 66.396 17.6905C66.5914 17.4179 66.5742 17.1533 66.6521 16.8196C66.9474 16.2344 67.2392 15.5469 67.4779 14.9582C67.5782 14.7106 67.7654 13.7882 67.8684 13.6352C68.9715 13.6352 70.0172 13.6352 71.0627 13.6352C71.0627 13.7172 71.0627 13.7394 71.0627 13.7615C71.084 13.7615 71.1054 13.7615 71.0691 13.7615C70.9444 14.7637 70.3402 15.916 69.9744 16.8196C69.746 17.384 69.6911 17.9174 69.4047 18.4218C68.8618 19.9624 68.2686 21.5857 67.6123 23.009C67.6272 23.2084 67.5846 23.4677 67.4843 23.6073C67.1931 24.5286 66.5253 25.8071 66.332 26.7319C67.0522 27.0314 68.5741 26.8627 69.3983 26.7984ZM78.4308 13.6352C78.4801 14.2505 78.2024 14.6256 78.0403 14.9648C77.9047 15.3586 77.9202 15.6214 77.7267 15.8955C77.6423 16.3042 77.4138 16.7367 77.2145 17.0855C77.1365 17.4196 77.1519 17.6823 76.9585 17.9564C76.4775 19.3408 75.9524 20.8128 75.3581 22.0782C75.2107 22.6444 75.173 23.0945 74.9676 23.5408C74.8261 23.9495 74.5966 24.3818 74.3979 24.671C74.3202 25.0653 74.335 25.3272 74.1418 25.6017C74.0561 26.015 73.8583 26.3037 73.7577 26.7319C74.4647 27.0267 75.9513 26.8627 76.7024 26.7984C76.7024 26.8803 76.7024 26.9025 76.7024 26.8648C76.7814 26.8648 76.8027 26.8648 76.7664 26.8648C76.7098 27.5902 76.3545 28.2222 76.0623 28.7861C75.9829 29.1154 76.0469 29.4974 75.6718 29.5241C75.384 29.7952 74.4366 29.6504 74.0074 29.5905C72.4239 29.5905 70.6696 29.5961 69.5263 29.5241C69.5445 29.1139 69.772 28.7952 69.8528 28.3939C70.2658 27.5772 70.5327 26.695 70.813 25.8011C71.1168 25.2536 71.1991 24.6744 71.3892 24.0062C72.3161 21.9305 73.064 19.6185 73.8858 17.4844C74.328 16.5512 74.6063 15.5879 74.9676 14.6922C75.0835 14.405 75.1009 13.8224 75.2941 13.6352C76.3972 13.6352 77.443 13.6352 78.4308 13.6352Z" fill="#CCCCCC"/>
</svg>
