<svg width="56" height="56" viewBox="0 0 56 56" fill="none" xmlns="http://www.w3.org/2000/svg">
<circle cx="28" cy="28" r="28" fill="#715EA6"/>
<path d="M16.9316 37.8413H18.5948C20.5478 37.8413 21.5432 38.5217 21.5432 40.2101C21.5432 41.0291 21.2282 41.6087 20.5856 41.9741C21.5432 42.3773 22.0346 43.0955 22.0346 44.1539C22.0346 46.0565 20.9762 46.7999 18.9098 46.7999H16.9316V37.8413ZM17.7758 38.6981V41.7095H18.305C19.7792 41.7095 20.6486 41.4323 20.6486 40.1723C20.6486 39.1013 19.9304 38.6981 18.5318 38.6981H17.7758ZM17.7758 42.5663V45.9431H19.0106C20.4344 45.9431 21.14 45.4265 21.14 44.2673C21.14 43.1207 20.4344 42.5663 19.0106 42.5663H17.7758ZM27.5283 43.1837L25.8273 38.6855L24.1515 43.1837H27.5283ZM22.7781 46.7999H21.8457L25.3233 37.8413H26.3817L29.8467 46.7999H28.9017L27.8307 43.9901H23.8491L22.7781 46.7999ZM30.0385 44.2421H30.8953C30.9205 45.3635 31.5883 46.0565 32.5333 46.0565C33.5917 46.0565 34.2343 45.3383 34.2343 44.2421C34.2343 42.9443 33.3775 42.7427 32.1301 42.3269C30.8701 41.8985 30.2779 41.2811 30.2779 40.1093C30.2779 38.7233 31.2229 37.6775 32.6719 37.6775C33.9949 37.6775 34.8391 38.5217 34.9273 40.0463H34.0957C34.0075 39.0635 33.4909 38.5217 32.6719 38.5217C31.7647 38.5217 31.1599 39.1769 31.1599 40.0589C31.1599 40.5251 31.3237 40.8527 31.6891 41.1299C32.1175 41.4449 32.7601 41.5583 33.4783 41.8355C34.6123 42.2765 35.1163 42.9191 35.1163 44.0783C35.1163 45.7919 34.1083 46.9763 32.5207 46.9763C31.0717 46.9763 30.0637 45.8801 30.0385 44.2421ZM35.5456 44.2421H36.4024C36.4276 45.3635 37.0954 46.0565 38.0404 46.0565C39.0988 46.0565 39.7414 45.3383 39.7414 44.2421C39.7414 42.9443 38.8846 42.7427 37.6372 42.3269C36.3772 41.8985 35.785 41.2811 35.785 40.1093C35.785 38.7233 36.73 37.6775 38.179 37.6775C39.502 37.6775 40.3462 38.5217 40.4344 40.0463H39.6028C39.5146 39.0635 38.998 38.5217 38.179 38.5217C37.2718 38.5217 36.667 39.1769 36.667 40.0589C36.667 40.5251 36.8308 40.8527 37.1962 41.1299C37.6246 41.4449 38.2672 41.5583 38.9854 41.8355C40.1194 42.2765 40.6234 42.9191 40.6234 44.0783C40.6234 45.7919 39.6154 46.9763 38.0278 46.9763C36.5788 46.9763 35.5708 45.8801 35.5456 44.2421Z" fill="white"/>
<path d="M18.2955 12.7959C18.2955 13.7319 19.0429 14.4808 19.9772 14.4808C20.9115 14.4808 21.6589 13.7319 21.6589 12.7959C21.6589 11.8599 20.9115 11.1111 19.9772 11.1111C19.0429 11.1111 18.2955 11.8833 18.2955 12.7959ZM17.5481 17.6632C17.5481 18.5993 18.2955 19.3481 19.2298 19.3481C20.164 19.3481 20.9115 18.5993 20.9115 17.6632C20.9115 16.7272 20.164 15.9784 19.2298 15.9784C18.2955 15.9784 17.5481 16.7506 17.5481 17.6632ZM16.1 22.4838C16.1 23.4198 16.8474 24.1686 17.7817 24.1686C18.7159 24.1686 19.4634 23.4198 19.4634 22.4838C19.4634 21.5477 18.7159 20.7989 17.7817 20.7989C16.8474 20.7989 16.1 21.5711 16.1 22.4838ZM35.0188 15.6508C35.0188 16.5868 35.7662 17.3356 36.7005 17.3356C37.6348 17.3356 38.3822 16.5868 38.3822 15.6508C38.3822 14.7148 37.6348 13.966 36.7005 13.966C35.7662 13.966 35.0188 14.7382 35.0188 15.6508ZM36.1867 21.0797C36.1867 22.0157 36.9341 22.7646 37.8683 22.7646C38.8026 22.7646 39.55 22.0157 39.55 21.0797C39.55 20.1437 38.8026 19.3949 37.8683 19.3949C36.9341 19.3949 36.1867 20.1671 36.1867 21.0797ZM31.0015 33.95H25.2091C24.1347 33.95 23.2471 33.1544 23.0603 32.1248C22.7333 30.1592 21.5654 28.8019 20.9115 28.1935C20.2575 27.5851 20.0706 26.6023 20.5378 25.8066C23.2938 20.9393 23.5741 8.58382 23.6208 6.15016C23.6208 5.68215 23.8544 5.21413 24.1814 4.93333C24.5551 4.65252 25.0222 4.51212 25.4893 4.55892C28.9928 5.12053 31.7489 7.27338 32.7766 8.16261C33.197 8.53702 33.3839 9.05183 33.3372 9.61344C32.6832 18.3653 34.4116 22.437 35.486 24.8706C35.7662 25.5258 35.9998 26.0875 36.1399 26.6023C36.3268 27.3043 36.0465 28.0531 35.4392 28.3807C33.851 29.3167 33.3839 31.0952 33.2437 32.078C33.0102 33.2012 32.1226 33.95 31.0015 33.95ZM22.3129 26.7427C23.2004 27.5383 24.6485 29.2231 25.0222 31.7972C25.0222 31.8908 25.1156 31.9376 25.2091 31.9376H31.0015C31.0949 31.9376 31.1884 31.8908 31.1884 31.7972C31.3752 30.5336 31.9825 28.2403 34.0379 26.8363C33.8977 26.5087 33.7576 26.0875 33.5707 25.6194C32.4496 23.0454 30.6278 18.6929 31.2818 9.51984C30.4877 8.86462 28.2921 7.13298 25.5828 6.57137C25.5361 10.5963 25.0689 21.7817 22.3129 26.7427Z" fill="white"/>
</svg>
