<svg width="56" height="56" viewBox="0 0 56 56" fill="none" xmlns="http://www.w3.org/2000/svg">
<circle cx="28" cy="28" r="28" fill="#715EA6"/>
<path d="M42.412 10.2845C43.0645 9.85624 43.2467 8.98799 42.8176 8.33681C42.3885 7.68562 41.5185 7.50376 40.866 7.93202L34.7114 11.9506C32.6893 11.6103 30.4085 11.4519 27.9984 11.4519C19.6865 11.4519 12.95 13.3292 12.95 18.0224V27.4089C12.95 29.2451 14.5606 30.8584 17.1824 32.0259V26.0009C17.1824 25.2207 17.8113 24.593 18.5932 24.593C19.375 24.593 20.0039 25.2207 20.0039 26.0009V33.0056C21.9438 33.5277 24.1834 33.8562 26.5876 33.9501V27.8782C26.5876 27.098 27.2166 26.4702 27.9984 26.4702C28.7802 26.4702 29.4092 27.098 29.4092 27.8782V33.9501C31.8134 33.8562 34.0531 33.5277 35.9929 33.0056V26.0009C35.9929 25.2207 36.6219 24.593 37.4037 24.593C38.1855 24.593 38.8145 25.2207 38.8145 26.0009V32.0259C41.4362 30.8584 43.0468 29.2451 43.0468 27.4089V18.0224C43.0468 15.6113 41.2716 13.9452 38.4148 12.8951L42.4061 10.2845H42.412ZM31.0199 14.3617L27.2225 16.8433C26.57 17.2715 26.3878 18.1398 26.8169 18.791C27.246 19.4421 28.116 19.624 28.7685 19.1958L35.2993 14.9249C36.1634 15.1126 36.9393 15.3356 37.6153 15.5996C39.8961 16.4854 40.2253 17.4006 40.2253 18.0224C40.2253 18.0694 40.0666 19.0315 37.5213 20.1285C35.2346 21.1141 31.8781 21.777 27.9984 21.777C24.1187 21.777 20.7622 21.1141 18.4756 20.1285C15.9303 19.0315 15.7716 18.0694 15.7716 18.0224C15.7716 17.4006 16.1008 16.4854 18.3815 15.5996C20.627 14.7313 23.9894 14.2679 27.9984 14.2679C29.0565 14.2679 30.0617 14.2972 31.0199 14.3617Z" fill="white"/>
<path d="M12.7316 37.8413H15.2768C16.5872 37.8413 17.5322 38.0681 18.3134 38.7233C19.334 39.5801 19.9262 40.8779 19.9262 42.3017C19.9262 43.9145 19.2584 45.2501 18.137 46.0565C17.129 46.7747 16.1336 46.7999 14.8862 46.7999H12.7316V37.8413ZM13.601 38.6981V45.9557H15.428C17.759 45.9557 18.9812 44.5697 18.9812 42.2765C18.9812 41.0921 18.5402 40.0715 17.7716 39.4037C17.0282 38.7611 16.2344 38.6981 15.2138 38.6981H13.601ZM21.5291 38.7233V46.7999H20.6597V37.8413H23.0663C23.9105 37.8413 24.5909 37.9169 25.2209 38.3579C25.9391 38.8619 26.3801 39.7565 26.3801 40.6889C26.3801 42.0497 25.4729 43.2089 24.2129 43.2971L26.3801 46.7999H25.3343L22.6757 42.4781H23.5199C24.6791 42.4781 25.4351 41.7221 25.4351 40.7015C25.4351 40.0715 25.2209 39.5549 24.7925 39.1643C24.3011 38.7233 23.6711 38.7233 22.8269 38.7233H21.5291ZM27.2985 37.8413H28.1805V43.3223C28.1805 43.3853 28.1805 43.4483 28.1805 43.5113C28.1805 44.1161 28.1931 44.6201 28.4073 45.0737C28.7223 45.7415 29.3775 46.1573 30.1587 46.1573C31.5573 46.1573 32.1495 45.1997 32.1495 43.3223V37.8413H33.0189V43.5365C33.0189 45.8423 32.1117 46.9889 30.2217 46.9889C28.1805 46.9889 27.2985 45.8675 27.2985 43.5365V37.8413ZM34.2619 46.7999V37.8413H35.5597L38.6593 45.6281L41.7463 37.8413H43.0441V46.7999H42.1999V38.8871L39.0499 46.7999H38.2561L35.1061 38.8871V46.7999H34.2619Z" fill="white"/>
</svg>
