<svg width="56" height="56" viewBox="0 0 56 56" fill="none" xmlns="http://www.w3.org/2000/svg">
<circle cx="28" cy="28" r="28" fill="#715EA6"/>
<path d="M45.6022 12.2849L43.3882 8.65103C43.2406 8.40878 42.9477 8.33692 42.7048 8.48337L36.8694 11.1728C36.8455 11.27 36.7002 11.4404 36.6764 11.5376L36.2473 13.2867L31.2668 16.2889C30.581 15.7086 28.9643 14.2817 27.7926 13.9943C25.1564 13.3476 24.3345 14.5883 23.5841 15.5375C23.2935 15.8783 22.979 16.3163 22.6146 16.536C22.0072 16.9021 21.3237 16.7344 20.3235 16.5921C19.2257 16.4258 17.9564 16.1144 16.4964 16.5804C15.7414 16.7043 13.8216 17.7787 12.9566 20.0391C12.3322 21.7403 12.0553 24.5571 14.5644 28.6754C16.3356 31.5825 18.2952 33.2995 20.4432 33.8264C22.6889 34.3773 24.6825 33.424 25.8711 32.3763C26.9383 31.4018 27.4434 30.1864 27.9248 29.0682C28.2608 28.1204 28.6468 27.3909 29.1565 27.0008C29.521 26.7812 29.9353 26.7798 30.4712 26.7052C31.6167 26.6772 32.9575 26.697 33.6012 24.0733C33.8872 22.9071 33.4592 20.4326 33.2832 19.4622L38.2398 16.5572L39.9973 16.9883C40.1926 17.0362 40.3141 16.963 40.4355 16.8898L45.533 12.989C45.6783 12.8186 45.7498 12.5271 45.6022 12.2849ZM20.1399 27.4676C20.1161 27.5647 19.9208 27.5168 19.8232 27.4929C19.7255 27.4689 19.5302 27.421 19.4565 27.2999L17.9805 24.8773C17.8329 24.6351 17.9044 24.3436 18.1474 24.1971C18.3903 24.0507 18.6832 24.1225 18.8308 24.3648L20.3068 26.7873C20.4782 26.9324 20.3829 27.3211 20.1399 27.4676ZM24.4438 25.5357C22.5887 25.0806 21.4079 23.1425 21.8609 21.2962C22.3138 19.4499 24.2574 18.2783 26.1125 18.7334C27.9676 19.1884 29.1484 21.1265 28.6955 22.9728C28.2425 24.8192 26.2989 25.9908 24.4438 25.5357Z" fill="white"/>
<path d="M13.0564 42.5033H18.6256C18.4744 45.1493 16.5088 46.9763 14.0266 46.9763C11.4562 46.9763 9.47799 44.9477 9.47799 42.2639C9.47799 41.0165 9.95679 39.8699 10.8766 38.9627C11.7586 38.0933 12.817 37.6649 14.14 37.6649C15.8914 37.6649 17.3152 38.5469 18.1468 40.0967H17.0632C16.2316 39.0383 15.2992 38.5217 14.0896 38.5217C11.9602 38.5217 10.4104 40.2857 10.4104 42.2765C10.4104 44.5067 12.0484 46.1321 14.1022 46.1321C15.7024 46.1321 17.1766 45.0107 17.5798 43.2971H13.0564V42.5033ZM19.3606 37.8413H20.2426V43.3223C20.2426 43.3853 20.2426 43.4483 20.2426 43.5113C20.2426 44.1161 20.2552 44.6201 20.4694 45.0737C20.7844 45.7415 21.4396 46.1573 22.2208 46.1573C23.6194 46.1573 24.2116 45.1997 24.2116 43.3223V37.8413H25.081V43.5365C25.081 45.8423 24.1738 46.9889 22.2838 46.9889C20.2426 46.9889 19.3606 45.8675 19.3606 43.5365V37.8413ZM27.143 46.7999H26.261V37.8413H27.143V46.7999ZM30.3735 46.7999H29.4915V38.7233H27.7023V37.8413H32.1627V38.7233H30.3735V46.7999ZM36.791 43.1837L35.09 38.6855L33.4142 43.1837H36.791ZM32.0408 46.7999H31.1084L34.586 37.8413H35.6444L39.1094 46.7999H38.1644L37.0934 43.9901H33.1118L32.0408 46.7999ZM40.1666 38.7233V46.7999H39.2972V37.8413H41.7038C42.548 37.8413 43.2284 37.9169 43.8584 38.3579C44.5766 38.8619 45.0176 39.7565 45.0176 40.6889C45.0176 42.0497 44.1104 43.2089 42.8504 43.2971L45.0176 46.7999H43.9718L41.3132 42.4781H42.1574C43.3166 42.4781 44.0726 41.7221 44.0726 40.7015C44.0726 40.0715 43.8584 39.5549 43.43 39.1643C42.9386 38.7233 42.3086 38.7233 41.4644 38.7233H40.1666Z" fill="white"/>
</svg>
